<?xml version="1.0" encoding="utf-8"?>
<!-- Generator: Adobe Illustrator 15.1.0, SVG Export Plug-In . SVG Version: 6.00 Build 0)  -->
<!DOCTYPE svg PUBLIC "-//W3C//DTD SVG 1.1//EN" "http://www.w3.org/Graphics/SVG/1.1/DTD/svg11.dtd">
<svg version="1.1" id="Layer_1" xmlns="http://www.w3.org/2000/svg" xmlns:xlink="http://www.w3.org/1999/xlink" x="0px" y="0px"
	 width="41px" height="25px" viewBox="0 0 41 25" enable-background="new 0 0 41 25" xml:space="preserve">
<g id="layer1">
	<g id="g10305">
		<path id="path2268" fill="#FF9900" d="M39,12.819C39.002,18.992,33.998,23.998,27.825,24c-6.174,0.002-11.179-5.002-11.181-11.174
			c0-0.002,0-0.004,0-0.006C16.644,6.646,21.646,1.641,27.819,1.639C33.993,1.637,38.998,6.64,39,12.814
			C39,12.815,39,12.818,39,12.819z"/>
		<path id="path1350" fill="#CC0000" d="M12.757,1.642C6.62,1.681,1.65,6.673,1.65,12.819c0,6.17,5.008,11.178,11.178,11.178
			c2.896,0,5.536-1.104,7.521-2.912v-0.001h0.002c0.406-0.37,0.786-0.771,1.135-1.197h-2.29c-0.306-0.369-0.583-0.754-0.834-1.15
			h3.95c0.24-0.385,0.457-0.783,0.65-1.197h-5.252c-0.179-0.385-0.335-0.777-0.467-1.174h6.188c0.372-1.115,0.574-2.307,0.574-3.546
			c0-0.822-0.089-1.623-0.258-2.394h-6.832c0.085-0.396,0.19-0.788,0.318-1.174h6.189c-0.138-0.41-0.299-0.81-0.482-1.197h-5.23
			c0.188-0.402,0.401-0.795,0.641-1.174h3.946c-0.263-0.418-0.553-0.817-0.867-1.196h-2.2c0.34-0.4,0.715-0.778,1.121-1.129
			c-1.986-1.809-4.627-2.913-7.523-2.913C12.805,1.642,12.78,1.642,12.757,1.642z"/>
		<path id="use9412" fill="#FCB340" d="M37.878,18.662c0.062,0,0.12,0.017,0.178,0.047c0.059,0.032,0.104,0.076,0.136,0.135
			c0.032,0.058,0.048,0.117,0.048,0.181c0,0.063-0.016,0.122-0.048,0.181c-0.031,0.057-0.076,0.102-0.134,0.134
			c-0.057,0.03-0.117,0.047-0.18,0.047s-0.122-0.017-0.179-0.047c-0.059-0.032-0.103-0.077-0.135-0.134
			c-0.032-0.059-0.048-0.118-0.048-0.181c0-0.063,0.016-0.123,0.048-0.181c0.033-0.059,0.078-0.103,0.136-0.135
			C37.759,18.679,37.817,18.662,37.878,18.662 M37.878,18.723c-0.05,0-0.1,0.014-0.147,0.039c-0.049,0.026-0.086,0.063-0.112,0.113
			c-0.028,0.047-0.041,0.098-0.041,0.149s0.013,0.103,0.039,0.15c0.027,0.048,0.064,0.085,0.111,0.111
			c0.049,0.026,0.099,0.04,0.15,0.04c0.053,0,0.103-0.014,0.15-0.04s0.085-0.063,0.111-0.111s0.04-0.099,0.04-0.15
			s-0.014-0.103-0.04-0.149c-0.027-0.05-0.065-0.087-0.113-0.113C37.979,18.736,37.929,18.723,37.878,18.723 M37.721,19.225v-0.39
			h0.134c0.045,0,0.077,0.004,0.099,0.012c0.02,0.007,0.037,0.019,0.049,0.038c0.012,0.018,0.018,0.035,0.018,0.056
			c0,0.028-0.01,0.054-0.029,0.075c-0.021,0.021-0.048,0.031-0.081,0.035c0.014,0.006,0.024,0.012,0.033,0.021
			c0.015,0.015,0.034,0.041,0.057,0.077l0.048,0.076h-0.076l-0.035-0.062c-0.026-0.048-0.048-0.079-0.065-0.091
			c-0.011-0.008-0.028-0.014-0.05-0.014h-0.037v0.166H37.721 M37.782,19.006h0.077c0.036,0,0.061-0.006,0.073-0.017
			c0.014-0.011,0.021-0.025,0.021-0.044c0-0.011-0.003-0.021-0.01-0.03c-0.006-0.009-0.016-0.015-0.026-0.021
			c-0.011-0.004-0.032-0.008-0.063-0.008h-0.071L37.782,19.006"/>
	</g>
	<g id="g16480">
		<g id="g13802" transform="translate(-13.74405,15.9939)">
			<path id="path13804" fill="#000066" d="M30.282,0.032l0.148-1.012c-0.082,0-0.201,0.035-0.307,0.035
				c-0.414,0-0.467-0.222-0.434-0.384l0.408-2.034h0.63l0.13-1.149h-0.594l0.121-0.696h-1.242c-0.025,0.026-0.702,3.914-0.702,4.387
				c0,0.7,0.394,1.013,0.948,1.008C29.824,0.185,30.162,0.065,30.282,0.032z"/>
			<path id="path13806" fill="#000066" d="M30.658-1.896c0,1.682,1.11,2.081,2.056,2.081c0.874,0,1.332-0.202,1.332-0.202
				l0.209-1.147c0,0-0.737,0.3-1.337,0.3c-1.278,0-1.055-0.953-1.055-0.953l2.456,0.008c0,0,0.156-0.771,0.156-1.086
				c0-0.784-0.428-1.747-1.734-1.747C31.545-4.643,30.658-3.353,30.658-1.896z M32.746-3.577c0.672,0,0.547,0.755,0.547,0.816
				h-1.321C31.972-2.84,32.097-3.577,32.746-3.577z"/>
			<path id="path13808" fill="#000066" d="M40.282,0.032l0.213-1.298c0,0-0.585,0.293-0.985,0.293c-0.844,0-1.183-0.645-1.183-1.338
				c0-1.405,0.727-2.178,1.535-2.178c0.606,0,1.093,0.341,1.093,0.341l0.194-1.261c0,0-0.574-0.414-1.192-0.417
				c-1.86-0.007-2.925,1.288-2.925,3.527c0,1.484,0.788,2.493,2.208,2.493C39.642,0.195,40.282,0.032,40.282,0.032z"/>
			<path id="path13810" fill="#000066" d="M23.735-4.624c-0.815,0-1.441,0.262-1.441,0.262l-0.172,1.025
				c0,0,0.516-0.209,1.297-0.209c0.443,0,0.768,0.049,0.768,0.41c0,0.219-0.04,0.299-0.04,0.299s-0.35-0.029-0.512-0.029
				c-1.162,0-2.11,0.439-2.11,1.764c0,1.044,0.709,1.283,1.148,1.283c0.841,0,1.173-0.529,1.191-0.531l-0.009,0.439h1.048
				l0.467-3.277C25.37-4.58,24.157-4.624,23.735-4.624z M23.917-1.964c0.023,0.2-0.051,1.146-0.768,1.146
				c-0.37,0-0.466-0.282-0.466-0.448c0-0.326,0.177-0.719,1.048-0.719C23.935-1.984,23.883-1.969,23.917-1.964z"/>
			<path id="path13812" fill="#000066" d="M26.484,0.156c0.268,0,1.8,0.067,1.8-1.514c0-1.479-1.418-1.186-1.418-1.78
				c0-0.296,0.231-0.389,0.654-0.389c0.167,0,0.813,0.054,0.813,0.054l0.15-1.051c0,0-0.418-0.093-1.098-0.093
				c-0.881,0-1.774,0.352-1.774,1.554c0,1.363,1.49,1.225,1.49,1.799c0,0.383-0.416,0.415-0.737,0.415
				c-0.555,0-1.056-0.19-1.057-0.182l-0.159,1.04C25.178,0.018,25.485,0.156,26.484,0.156z"/>
			<path id="path13814" fill="#000066" d="M50.099-5.577l-0.215,1.603c0,0-0.448-0.619-1.149-0.619c-1.32,0-2,1.315-2,2.826
				c0,0.975,0.485,1.931,1.477,1.931c0.713,0,1.107-0.497,1.107-0.497l-0.052,0.425h1.157l0.91-5.66L50.099-5.577z M49.587-2.462
				c0,0.628-0.311,1.468-0.956,1.468c-0.428,0-0.629-0.359-0.629-0.924c0-0.922,0.414-1.531,0.938-1.531
				C49.368-3.448,49.587-3.155,49.587-2.462z"/>
			<path id="path13816" fill="#000066" d="M17.292,0.096l0.725-4.274l0.106,4.274h0.819l1.53-4.274l-0.678,4.274h1.218l0.939-5.667
				l-1.937-0.015l-1.15,3.47l-0.032-3.455h-1.773l-0.952,5.667H17.292L17.292,0.096z"/>
			<path id="path13818" fill="#000066" d="M35.629,0.104c0.346-1.971,0.47-3.526,1.479-3.204c0.145-0.763,0.49-1.426,0.649-1.749
				c0,0-0.051-0.075-0.363-0.075c-0.532,0-1.244,1.082-1.244,1.082l0.106-0.668h-1.108l-0.742,4.613H35.629L35.629,0.104z"/>
			<g id="use14699" transform="translate(845.3001,0)">
				<path id="path13810_1_" fill="#000066" d="M-802.526-4.624c-0.816,0-1.441,0.262-1.441,0.262l-0.173,1.025
					c0,0,0.517-0.209,1.297-0.209c0.443,0,0.768,0.049,0.768,0.41c0,0.219-0.04,0.299-0.04,0.299s-0.349-0.029-0.512-0.029
					c-1.162,0-2.109,0.439-2.109,1.764c0,1.044,0.708,1.283,1.148,1.283c0.84,0,1.172-0.529,1.191-0.531l-0.01,0.439h1.048
					l0.467-3.277C-800.892-4.58-802.105-4.624-802.526-4.624z M-802.344-1.964c0.022,0.2-0.052,1.146-0.769,1.146
					c-0.37,0-0.466-0.282-0.466-0.448c0-0.326,0.177-0.719,1.049-0.719C-802.327-1.984-802.378-1.969-802.344-1.964z"/>
			</g>
			<path id="use14701" fill="#000066" d="M45.615,0.104c0.19-1.449,0.542-3.484,1.479-3.204c0.145-0.763,0.006-0.761-0.307-0.761
				c-0.533,0-0.651,0.019-0.651,0.019l0.106-0.668h-1.108l-0.742,4.613H45.615L45.615,0.104z"/>
		</g>
		<g id="g10289">
			<path id="path4157" fill="#FFFFFF" d="M16.848,15.665l0.149-1.011c-0.081,0-0.201,0.035-0.307,0.035
				c-0.414,0-0.46-0.221-0.434-0.385l0.334-2.063h0.63l0.152-1.119h-0.595l0.122-0.695h-1.19c-0.026,0.026-0.702,3.913-0.702,4.386
				c0,0.7,0.393,1.013,0.948,1.008C16.39,15.817,16.729,15.697,16.848,15.665z"/>
			<path id="path4155" fill="#FFFFFF" d="M17.226,13.736c0,1.683,1.109,2.082,2.056,2.082c0.872,0,1.257-0.195,1.257-0.195
				l0.209-1.147c0,0-0.663,0.292-1.264,0.292c-1.277,0-1.054-0.953-1.054-0.953h2.418c0,0,0.156-0.771,0.156-1.085
				c0-0.784-0.39-1.74-1.696-1.74C18.111,10.99,17.226,12.28,17.226,13.736z M19.312,12.056c0.672,0,0.548,0.755,0.548,0.816h-1.321
				C18.538,12.794,18.664,12.056,19.312,12.056z"/>
			<path id="path4151" fill="#FFFFFF" d="M26.849,15.665l0.212-1.298c0,0-0.583,0.293-0.983,0.293c-0.845,0-1.184-0.645-1.184-1.338
				c0-1.405,0.727-2.178,1.535-2.178c0.606,0,1.093,0.341,1.093,0.341l0.194-1.261c0,0-0.721-0.292-1.34-0.292
				c-1.374,0-2.711,1.192-2.711,3.431c0,1.484,0.722,2.465,2.143,2.465C26.209,15.828,26.849,15.665,26.849,15.665z"/>
			<path id="path4149" fill="#FFFFFF" d="M10.302,11.008c-0.815,0-1.441,0.263-1.441,0.263l-0.172,1.025
				c0,0,0.516-0.209,1.296-0.209c0.443,0,0.768,0.05,0.768,0.41c0,0.219-0.04,0.299-0.04,0.299s-0.35-0.029-0.511-0.029
				c-1.029,0-2.11,0.44-2.11,1.764c0,1.044,0.709,1.282,1.148,1.282c0.84,0,1.202-0.545,1.222-0.547l-0.04,0.455h1.048l0.468-3.277
				C11.937,11.053,10.724,11.008,10.302,11.008z M10.558,13.678c0.022,0.199-0.126,1.139-0.843,1.139
				c-0.369,0-0.466-0.283-0.466-0.45c0-0.325,0.178-0.717,1.05-0.717C10.501,13.65,10.522,13.672,10.558,13.678z"/>
			<path id="path4145" fill="#FFFFFF" d="M13.051,15.789c0.268,0,1.8,0.068,1.8-1.514c0-1.479-1.418-1.186-1.418-1.78
				c0-0.295,0.23-0.388,0.653-0.388c0.168,0,0.813,0.053,0.813,0.053l0.15-1.051c0,0-0.418-0.094-1.099-0.094
				c-0.88,0-1.773,0.352-1.773,1.555c0,1.362,1.489,1.225,1.489,1.799c0,0.384-0.415,0.414-0.736,0.414
				c-0.556,0-1.055-0.189-1.058-0.181l-0.158,1.04C11.743,15.651,12.052,15.789,13.051,15.789z"/>
			<path id="path4139" fill="#FFFFFF" d="M36.706,10.065l-0.256,1.593c0,0-0.448-0.618-1.149-0.618c-1.091,0-2,1.314-2,2.825
				c0,0.975,0.485,1.93,1.476,1.93c0.713,0,1.108-0.496,1.108-0.496l-0.053,0.424h1.158l0.909-5.659L36.706,10.065z M36.153,13.172
				c0,0.627-0.311,1.468-0.956,1.468c-0.428,0-0.629-0.36-0.629-0.925c0-0.922,0.414-1.531,0.938-1.531
				C35.934,12.184,36.153,12.478,36.153,13.172z"/>
			<path id="path4133" fill="#FFFFFF" d="M3.858,15.728l0.725-4.272l0.105,4.272H5.51l1.529-4.272l-0.678,4.272h1.218l0.938-5.667
				H6.634L5.46,13.537l-0.061-3.477H3.662l-0.951,5.667H3.858z"/>
			<path id="path4131" fill="#FFFFFF" d="M22.194,15.736c0.347-1.971,0.411-3.57,1.237-3.277c0.146-0.762,0.284-1.057,0.442-1.38
				c0,0-0.074-0.016-0.229-0.016c-0.533,0-0.928,0.729-0.928,0.729l0.106-0.668h-1.108l-0.742,4.613H22.194z"/>
			<g id="use8523" transform="translate(847.0062,0)">
				<path id="path4149_1_" fill="#FFFFFF" d="M-817.412,11.008c-0.815,0-1.441,0.263-1.441,0.263l-0.172,1.025
					c0,0,0.516-0.209,1.297-0.209c0.443,0,0.767,0.05,0.767,0.41c0,0.219-0.039,0.299-0.039,0.299s-0.35-0.029-0.512-0.029
					c-1.029,0-2.11,0.44-2.11,1.764c0,1.044,0.709,1.282,1.148,1.282c0.84,0,1.201-0.545,1.221-0.547l-0.038,0.455
					c0,0,1.047,0,1.048,0l0.467-3.277C-815.778,11.053-816.991,11.008-817.412,11.008z M-817.157,13.678
					c0.022,0.199-0.125,1.139-0.842,1.139c-0.37,0-0.466-0.283-0.466-0.45c0-0.325,0.177-0.717,1.049-0.717
					C-817.212,13.65-817.191,13.672-817.157,13.678z"/>
			</g>
			<g id="use8525" transform="translate(442.2857,0)">
				<path id="path4131_1_" fill="#FFFFFF" d="M-410.099,15.736c0.347-1.971,0.41-3.57,1.237-3.277
					c0.145-0.762,0.285-1.057,0.442-1.38c0,0-0.074-0.016-0.229-0.016c-0.533,0-0.928,0.729-0.928,0.729l0.105-0.668h-1.107
					l-0.742,4.613H-410.099z"/>
			</g>
			<path id="text9407" fill="#FFFFFF" d="M37.874,15.023c0.061,0,0.12,0.016,0.178,0.048c0.058,0.03,0.103,0.075,0.135,0.134
				c0.032,0.057,0.048,0.117,0.048,0.181c0,0.062-0.016,0.122-0.048,0.179c-0.031,0.059-0.076,0.104-0.134,0.135
				c-0.057,0.031-0.117,0.047-0.179,0.047c-0.063,0-0.124-0.016-0.181-0.047c-0.058-0.031-0.102-0.076-0.133-0.135
				c-0.033-0.057-0.049-0.117-0.049-0.179c0-0.063,0.016-0.124,0.049-0.181c0.032-0.059,0.077-0.104,0.135-0.134
				C37.754,15.039,37.813,15.023,37.874,15.023 M37.874,15.084c-0.051,0-0.101,0.013-0.149,0.039
				c-0.048,0.025-0.085,0.063-0.112,0.111c-0.026,0.048-0.041,0.1-0.041,0.151s0.014,0.102,0.04,0.149
				c0.026,0.047,0.064,0.084,0.112,0.112c0.048,0.026,0.098,0.039,0.15,0.039c0.051,0,0.102-0.013,0.149-0.039
				c0.048-0.028,0.085-0.065,0.111-0.112c0.026-0.048,0.04-0.098,0.04-0.149s-0.014-0.104-0.04-0.151
				c-0.028-0.049-0.064-0.086-0.113-0.111C37.974,15.097,37.925,15.084,37.874,15.084 M37.716,15.585v-0.389h0.133
				c0.046,0,0.079,0.004,0.1,0.011c0.02,0.007,0.036,0.02,0.049,0.037c0.012,0.018,0.019,0.037,0.019,0.058
				c0,0.028-0.011,0.054-0.031,0.073c-0.02,0.021-0.046,0.033-0.08,0.036c0.013,0.006,0.024,0.013,0.033,0.021
				c0.016,0.016,0.034,0.041,0.057,0.077l0.048,0.076h-0.077l-0.033-0.061c-0.027-0.049-0.05-0.079-0.065-0.091
				c-0.012-0.01-0.029-0.014-0.051-0.014h-0.036v0.165H37.716 M37.778,15.366h0.076c0.037,0,0.061-0.005,0.073-0.017
				c0.015-0.01,0.021-0.025,0.021-0.043c0-0.012-0.004-0.021-0.01-0.03c-0.007-0.009-0.016-0.017-0.026-0.021
				c-0.013-0.005-0.032-0.008-0.063-0.008h-0.071V15.366"/>
		</g>
	</g>
</g>
</svg>
