<?xml version="1.0" encoding="utf-8"?>
<!-- Generator: Adobe Illustrator 15.1.0, SVG Export Plug-In . SVG Version: 6.00 Build 0)  -->
<!DOCTYPE svg PUBLIC "-//W3C//DTD SVG 1.1//EN" "http://www.w3.org/Graphics/SVG/1.1/DTD/svg11.dtd">
<svg version="1.1" id="Layer_1" xmlns="http://www.w3.org/2000/svg" xmlns:xlink="http://www.w3.org/1999/xlink" x="0px" y="0px"
	 width="55px" height="25px" viewBox="0 0 55 25" enable-background="new 0 0 55 25" xml:space="preserve">
<g id="Background">
	<rect x="1.634" y="1.333" fill-opacity="0" width="52.366" height="22.667"/>
</g>
<g id="Layer_1_1_">
	<path fill="#223D77" d="M22.555,13.601l-2.593,6.99l-0.278-1.422c-0.646-1.741-2.042-3.568-3.671-4.31l2.373,8.979l2.804-0.003
		l4.168-10.234H22.555"/>
	<g>
		<defs>
			<rect id="SVGID_1_" x="1.634" y="1.694" width="51.73" height="22.259"/>
		</defs>
		<clipPath id="SVGID_2_">
			<use xlink:href="#SVGID_1_"  overflow="visible"/>
		</clipPath>
		<g clip-path="url(#SVGID_2_)">
			<path fill="#223D77" d="M24.777,23.849l1.657-10.26h2.649l-1.66,10.26H24.777"/>
			<path fill="#223D77" d="M37.034,13.841c-0.524-0.207-1.35-0.433-2.376-0.433c-2.618,0-4.459,1.394-4.475,3.387
				c-0.018,1.477,1.315,2.299,2.318,2.788c1.034,0.503,1.379,0.824,1.377,1.272c-0.011,0.688-0.828,1.003-1.587,1.003
				c-1.06,0-1.623-0.157-2.493-0.54l-0.343-0.162l-0.372,2.297c0.621,0.285,1.765,0.534,2.954,0.547c2.781,0,4.59-1.377,4.611-3.503
				c0.01-1.174-0.696-2.059-2.226-2.789c-0.924-0.474-1.495-0.791-1.484-1.272c0-0.427,0.479-0.882,1.516-0.882
				c0.869-0.014,1.493,0.186,1.982,0.396l0.235,0.117L37.034,13.841"/>
		</g>
	</g>
	<path fill="#223D77" d="M40.56,20.208c0.222-0.586,1.056-2.866,1.056-2.866c-0.016,0.028,0.218-0.592,0.354-0.977l0.176,0.885
		c0,0,0.508,2.448,0.615,2.958C42.35,20.208,41.079,20.208,40.56,20.208z M43.828,13.601H41.78c-0.634,0-1.11,0.181-1.391,0.851
		l-3.931,9.399h2.781c0,0,0.456-1.265,0.559-1.543c0.303,0,3.006,0.006,3.391,0.006c0.08,0.359,0.321,1.537,0.321,1.537h2.462
		L43.828,13.601"/>
	<path fill="#EC9434" d="M17.556,13.592h-4.271l-0.026,0.179c3.322,0.848,5.514,2.935,6.425,5.401l-0.926-4.713
		C18.598,13.81,18.132,13.615,17.556,13.592"/>
	<path fill="#223D77" d="M5.27,11.115H3.582L1.634,2.331L3.5,2.019l1.333,6.873l3.396-6.784h1.794L5.27,11.115"/>
	<path fill="#223D77" d="M11.686,5.748c-0.624,0-1.207,0.495-1.481,1.521h2.494C12.743,6.295,12.439,5.748,11.686,5.748z
		 M14.055,8.243h-4.027c-0.11,1.22,0.458,1.754,1.419,1.754c0.806,0,1.513-0.298,2.278-0.78l-0.008,1.222
		c-0.747,0.466-1.613,0.765-2.626,0.765c-1.754,0-2.912-1-2.564-3.26c0.314-2.04,1.726-3.275,3.362-3.275
		c1.885,0,2.511,1.417,2.236,3.197C14.107,7.997,14.07,8.154,14.055,8.243"/>
	<path fill="#223D77" d="M16.681,7.476l-0.553,3.601h-1.561L15.534,4.8h1.325v1.259c0.529-0.725,1.247-1.337,2.229-1.39l0.011,1.547
		C18.113,6.282,17.229,6.8,16.681,7.476"/>
	<path fill="#223D77" d="M20.997,3.747c-0.519,0-0.88-0.364-0.799-0.882c0.084-0.535,0.555-0.912,1.076-0.912
		c0.505,0,0.864,0.377,0.783,0.912C21.975,3.383,21.504,3.747,20.997,3.747z M19.077,11.076L20.043,4.8h1.558l-0.966,6.276H19.077"
		/>
	<path fill="#223D77" d="M25.921,3.084c-0.534,0-0.856,0.234-0.942,0.794L24.837,4.8h1.196l-0.002,1.272h-1.391l-0.77,5.004h-1.545
		l0.771-5.004h-0.912L22.381,4.8h0.909l0.167-1.079c0.215-1.39,1.179-1.911,2.464-1.911c0.272,0,0.477,0.029,0.628,0.052
		l0.014,1.275C26.411,3.111,26.181,3.084,25.921,3.084"/>
	<path fill="#223D77" d="M27.859,3.747c-0.521,0-0.88-0.364-0.801-0.882c0.083-0.535,0.555-0.912,1.076-0.912
		c0.508,0,0.864,0.377,0.783,0.912C28.835,3.383,28.364,3.747,27.859,3.747z M25.937,11.076L26.903,4.8h1.561l-0.966,6.276H25.937"
		/>
	<path fill="#223D77" d="M32.138,5.748c-0.624,0-1.208,0.495-1.482,1.521h2.495C33.195,6.295,32.892,5.748,32.138,5.748z
		 M34.506,8.243H30.48c-0.11,1.22,0.458,1.754,1.419,1.754c0.807,0,1.514-0.298,2.278-0.78l-0.008,1.222
		c-0.746,0.466-1.613,0.765-2.626,0.765c-1.755,0-2.912-1-2.563-3.26c0.314-2.04,1.725-3.275,3.362-3.275
		c1.885,0,2.511,1.417,2.236,3.197C34.559,7.997,34.522,8.154,34.506,8.243"/>
	<path fill="#223D77" d="M39.646,6.255C39.285,6.072,39,5.983,38.469,5.983c-0.819,0-1.52,0.66-1.731,2.04
		c-0.188,1.219,0.244,1.791,0.932,1.791c0.574,0,1.066-0.338,1.562-0.856L39.646,6.255z M39.125,11.076l0.006-0.872
		c-0.523,0.534-1.207,1-2.076,1c-1.315,0-2.216-0.974-1.891-3.092c0.361-2.338,1.807-3.377,3.263-3.377
		c0.597,0,1.063,0.104,1.419,0.233l0.467-3.027l1.597-0.246l-1.446,9.382H39.125"/>
	<path fill="#223D77" d="M46.114,7.266c-0.396,0-0.792,0.268-1.14,0.621l-0.333,2.155c0.234,0.089,0.394,0.129,0.729,0.129
		c0.749,0,1.271-0.454,1.438-1.535C46.949,7.719,46.644,7.266,46.114,7.266z M45.242,11.134c-0.738,0-1.341-0.116-1.901-0.314
		l1.026-6.664l1.21-0.186l-0.445,2.883c0.354-0.314,0.846-0.628,1.446-0.628c1.005,0,1.675,0.746,1.432,2.341
		C47.74,10.317,46.658,11.134,45.242,11.134"/>
	<path fill="#223D77" d="M50.79,11.333c-0.602,1.17-1.199,1.534-2.115,1.534c-0.207,0-0.323-0.021-0.425-0.05l-0.008-0.975
		c0.153,0.04,0.314,0.068,0.54,0.068c0.346,0,0.644-0.157,0.846-0.5l0.157-0.316L48.784,6.41l1.255-0.158l0.581,3.387l1.571-3.318
		h1.173L50.79,11.333"/>
</g>
</svg>
