<?xml version="1.0" encoding="utf-8"?>
<!-- Generator: Adobe Illustrator 15.1.0, SVG Export Plug-In . SVG Version: 6.00 Build 0)  -->
<!DOCTYPE svg PUBLIC "-//W3C//DTD SVG 1.1//EN" "http://www.w3.org/Graphics/SVG/1.1/DTD/svg11.dtd">
<svg version="1.1" id="Layer_1" xmlns="http://www.w3.org/2000/svg" xmlns:xlink="http://www.w3.org/1999/xlink" x="0px" y="0px"
	 width="24px" height="24px" viewBox="0 0 24 24" enable-background="new 0 0 24 24" xml:space="preserve">
<g>
	<circle fill="#AD010B" cx="12" cy="12" r="11.988"/>
	<g>
		<path fill="#FFFFFF" d="M13.758,9.965c0,0.095-0.143,0.173-0.314,0.173H7.801c-0.171,0-0.313-0.078-0.313-0.173V9.62
			c0-0.095,0.142-0.173,0.313-0.173h5.642c0.172,0,0.314,0.078,0.314,0.173V9.965z M15.639,11.002c0,0.095-0.143,0.173-0.314,0.173
			H7.801c-0.171,0-0.313-0.078-0.313-0.173v-0.346c0-0.095,0.142-0.173,0.313-0.173h7.523c0.172,0,0.314,0.078,0.314,0.173V11.002z
			 M14.385,12.04c0,0.095-0.143,0.173-0.314,0.173H7.801c-0.171,0-0.313-0.078-0.313-0.173v-0.346c0-0.095,0.142-0.173,0.313-0.173
			h6.269c0.172,0,0.314,0.078,0.314,0.173V12.04z M16.266,13.076c0,0.096-0.143,0.174-0.314,0.174h-8.15
			c-0.171,0-0.313-0.078-0.313-0.174v-0.345c0-0.095,0.142-0.173,0.313-0.173h8.15c0.172,0,0.314,0.078,0.314,0.173V13.076z"/>
	</g>
	<g>
		<path fill="#FFFFFF" d="M16.266,14.123c0,0.095-0.143,0.173-0.314,0.173h-8.15c-0.171,0-0.313-0.078-0.313-0.173v-0.346
			c0-0.095,0.142-0.173,0.313-0.173h8.15c0.172,0,0.314,0.078,0.314,0.173V14.123z M16.266,15.16c0,0.095-0.143,0.173-0.314,0.173
			h-8.15c-0.171,0-0.313-0.078-0.313-0.173v-0.346c0-0.095,0.142-0.173,0.313-0.173h8.15c0.172,0,0.314,0.078,0.314,0.173V15.16z
			 M16.266,16.197c0,0.095-0.143,0.173-0.314,0.173h-8.15c-0.171,0-0.313-0.078-0.313-0.173v-0.346c0-0.095,0.142-0.173,0.313-0.173
			h8.15c0.172,0,0.314,0.078,0.314,0.173V16.197z"/>
	</g>
	<g>
		<path fill="#FFFFFF" d="M18.954,18.566c0,1.063-0.867,1.934-1.932,1.934H6.977c-1.063,0-1.931-0.871-1.931-1.934V5.434
			c0-1.063,0.867-1.934,1.931-1.934h10.046c1.064,0,1.932,0.872,1.932,1.934V18.566z M17.408,5.434c0-0.209-0.181-0.387-0.386-0.387
			H6.977c-0.204,0-0.385,0.178-0.385,0.387v11.587c0,0.205,0.181,0.387,0.385,0.387h10.046c0.205,0,0.386-0.182,0.386-0.387V5.434z
			 M12,18.184c-0.422,0-0.773,0.35-0.773,0.77c0,0.426,0.352,0.775,0.773,0.775s0.773-0.35,0.773-0.775
			C12.773,18.533,12.422,18.184,12,18.184z"/>
	</g>
	<g>
		<path fill="#FFFFFF" d="M8.762,7.384H7.978v0.73h0.878v0.219H7.713V6.308h1.097v0.219H7.978v0.64h0.785V7.384z"/>
		<path fill="#FFFFFF" d="M9.183,6.199h0.262v0.914h0.006c0.093-0.163,0.262-0.265,0.496-0.265c0.364,0,0.616,0.3,0.616,0.739
			c0,0.52-0.331,0.779-0.655,0.779c-0.21,0-0.379-0.081-0.49-0.271H9.412L9.396,8.333H9.171c0.006-0.099,0.012-0.247,0.012-0.376
			V6.199z M9.445,7.75c0,0.033,0.003,0.066,0.012,0.096c0.048,0.183,0.204,0.31,0.396,0.31c0.28,0,0.442-0.226,0.442-0.559
			c0-0.292-0.15-0.541-0.436-0.541c-0.178,0-0.346,0.126-0.4,0.324C9.451,7.414,9.445,7.45,9.445,7.492V7.75z"/>
		<path fill="#FFFFFF" d="M12.207,7.594c0,0.538-0.376,0.772-0.725,0.772c-0.391,0-0.697-0.289-0.697-0.749
			c0-0.484,0.322-0.77,0.721-0.77C11.924,6.849,12.207,7.152,12.207,7.594z M11.056,7.609c0,0.319,0.18,0.559,0.439,0.559
			c0.252,0,0.442-0.237,0.442-0.565c0-0.247-0.124-0.556-0.436-0.556C11.191,7.047,11.056,7.335,11.056,7.609z"/>
		<path fill="#FFFFFF" d="M13.854,7.594c0,0.538-0.375,0.772-0.725,0.772c-0.39,0-0.697-0.289-0.697-0.749
			c0-0.484,0.322-0.77,0.721-0.77C13.571,6.849,13.854,7.152,13.854,7.594z M12.703,7.609c0,0.319,0.18,0.559,0.439,0.559
			c0.253,0,0.442-0.237,0.442-0.565c0-0.247-0.124-0.556-0.437-0.556C12.838,7.047,12.703,7.335,12.703,7.609z"/>
		<path fill="#FFFFFF" d="M14.445,7.546h0.006c0.037-0.051,0.085-0.114,0.127-0.166l0.43-0.502h0.316l-0.56,0.598l0.64,0.857H15.08
			l-0.499-0.697l-0.136,0.15v0.547h-0.262V6.199h0.262V7.546z"/>
	</g>
</g>
</svg>
