<?xml version="1.0" encoding="utf-8"?>
<!-- Generator: Adobe Illustrator 15.1.0, SVG Export Plug-In . SVG Version: 6.00 Build 0)  -->
<!DOCTYPE svg PUBLIC "-//W3C//DTD SVG 1.1//EN" "http://www.w3.org/Graphics/SVG/1.1/DTD/svg11.dtd">
<svg version="1.1" id="Layer_1" xmlns="http://www.w3.org/2000/svg" xmlns:xlink="http://www.w3.org/1999/xlink" x="0px" y="0px"
	 width="66px" height="25px" viewBox="0 0 66 25" enable-background="new 0 0 66 25" xml:space="preserve">
<g>
	<g>
		<g>
			<path fill="#EC2127" d="M60.593,10.513c0-0.68,0.528-1.23,1.171-1.23c0.648,0,1.17,0.55,1.17,1.23
				c0,0.682-0.521,1.233-1.17,1.233C61.121,11.746,60.593,11.194,60.593,10.513L60.593,10.513z M61.764,11.453
				c0.494,0,0.896-0.421,0.896-0.94c0-0.515-0.401-0.934-0.896-0.934c-0.489,0-0.894,0.419-0.894,0.934
				C60.87,11.032,61.274,11.453,61.764,11.453L61.764,11.453z M61.605,11.053h-0.24V9.968h0.436c0.088,0,0.187,0.005,0.264,0.059
				c0.083,0.063,0.131,0.164,0.131,0.273c0,0.121-0.067,0.233-0.177,0.274l0.188,0.478h-0.268l-0.158-0.424h-0.176V11.053
				L61.605,11.053z M61.605,10.443h0.133c0.05,0,0.106,0.001,0.147-0.022c0.041-0.027,0.06-0.08,0.06-0.126
				c0-0.041-0.024-0.089-0.06-0.109c-0.035-0.024-0.107-0.019-0.149-0.019h-0.131V10.443L61.605,10.443z"/>
		</g>
		<path fill="#EC2127" d="M43.842,2.327l-0.319,2.087c-0.697-0.371-1.209-0.516-1.755-0.516c-1.46,0-2.492,1.483-2.492,3.602
			c0,1.462,0.693,2.343,1.832,2.343c0.484,0,1.015-0.156,1.666-0.497l-0.343,2.198c-0.72,0.207-1.188,0.28-1.732,0.28
			c-2.112,0-3.428-1.594-3.428-4.154c0-3.442,1.815-5.846,4.415-5.846c0.335,0,0.635,0.034,0.878,0.103l0.81,0.212
			C43.613,2.235,43.667,2.251,43.842,2.327L43.842,2.327z"/>
		<path fill="#EC2127" d="M37.337,3.758c-0.061-0.013-0.129-0.021-0.199-0.021c-0.646,0-1.012,0.342-1.611,1.274L35.7,3.822h-1.775
			l-1.204,7.826h1.97c0.705-4.783,0.885-5.608,1.829-5.608c0.058,0,0.063,0,0.143,0.007c0.174-0.942,0.413-1.636,0.742-2.268
			L37.337,3.758L37.337,3.758z"/>
		<path fill="#EC2127" d="M25.602,11.552c-0.533,0.178-0.953,0.259-1.405,0.259c-1,0-1.547-0.61-1.547-1.723
			c0-0.218,0.017-0.453,0.055-0.702l0.122-0.762l0.09-0.624l0.851-5.34h1.948l-0.224,1.161h1.003L26.22,5.724h-1.001l-0.518,3.267
			c-0.018,0.145-0.032,0.25-0.032,0.324c0,0.4,0.203,0.58,0.667,0.58c0.227,0,0.396-0.024,0.527-0.072L25.602,11.552L25.602,11.552z
			"/>
		<path fill="#EC2127" d="M17.876,6.297c0,0.988,0.454,1.671,1.485,2.181c0.789,0.393,0.915,0.508,0.915,0.864
			c0,0.485-0.352,0.711-1.122,0.711c-0.582,0-1.125-0.097-1.753-0.313l-0.271,1.806l0.088,0.019l0.36,0.076
			c0.116,0.024,0.286,0.047,0.511,0.071c0.468,0.044,0.826,0.065,1.079,0.065c2.056,0,3.008-0.83,3.008-2.613
			c0-1.071-0.396-1.704-1.376-2.178c-0.817-0.391-0.911-0.482-0.911-0.846c0-0.424,0.324-0.642,0.955-0.642
			c0.383,0,0.903,0.045,1.401,0.116l0.278-1.806c-0.511-0.088-1.269-0.156-1.72-0.156C18.624,3.651,17.867,4.853,17.876,6.297
			L17.876,6.297z"/>
		<path fill="#EC2127" d="M59.455,11.648h-1.854l0.097-0.766c-0.541,0.605-1.095,0.87-1.811,0.87c-1.434,0-2.373-1.291-2.373-3.249
			c0-2.604,1.46-4.801,3.193-4.801c0.761,0,1.338,0.331,1.88,1.072l0.427-2.75h1.932L59.455,11.648L59.455,11.648z M56.563,9.806
			c0.915,0,1.556-1.088,1.556-2.636c0-0.994-0.366-1.537-1.044-1.537c-0.888,0-1.519,1.092-1.519,2.632
			C55.556,9.289,55.896,9.806,56.563,9.806L56.563,9.806z"/>
		<path fill="#EC2127" d="M31.811,11.484c-0.671,0.21-1.318,0.316-2.015,0.313c-2.185,0-3.327-1.203-3.327-3.503
			c0-2.689,1.452-4.669,3.428-4.669c1.611,0,2.645,1.11,2.645,2.848c0,0.576-0.069,1.137-0.244,1.93h-3.897
			c-0.016,0.121-0.019,0.174-0.019,0.244c0,0.915,0.584,1.375,1.724,1.375c0.699,0,1.329-0.151,2.034-0.498L31.811,11.484
			L31.811,11.484z M30.711,6.824c0.012-0.164,0.015-0.297,0.015-0.396c0-0.641-0.347-1.014-0.93-1.014
			c-0.62,0-1.065,0.499-1.248,1.404L30.711,6.824L30.711,6.824z"/>
		<polygon fill="#EC2127" points="10.006,11.648 8.048,11.648 9.169,4.253 6.663,11.648 5.321,11.648 5.158,4.297 3.978,11.648 
			2.144,11.648 3.674,2.024 6.496,2.024 6.574,7.98 8.479,2.024 11.523,2.024 		"/>
		<path fill="#EC2127" d="M15.052,8.162c-0.206-0.025-0.298-0.034-0.438-0.034c-1.111,0-1.673,0.404-1.673,1.195
			c0,0.486,0.276,0.797,0.704,0.797C14.441,10.121,15.02,9.323,15.052,8.162L15.052,8.162z M16.478,11.648h-1.624l0.036-0.813
			c-0.494,0.649-1.155,0.949-2.054,0.949c-1.064,0-1.793-0.872-1.793-2.133c0-1.911,1.271-3.02,3.444-3.02
			c0.223,0,0.507,0.017,0.798,0.058c0.061-0.259,0.078-0.371,0.078-0.508c0-0.516-0.341-0.712-1.26-0.712
			c-0.555,0-1.191,0.084-1.63,0.223l-0.272,0.079L12.03,5.823l0.27-1.755c0.979-0.304,1.622-0.421,2.349-0.421
			c1.685,0,2.577,0.795,2.577,2.294c0,0.391-0.028,0.679-0.163,1.553l-0.41,2.773l-0.066,0.5l-0.051,0.399l-0.033,0.271
			L16.478,11.648L16.478,11.648z"/>
		<path fill="#EC2127" d="M47.219,8.162c-0.203-0.025-0.298-0.034-0.436-0.034c-1.114,0-1.68,0.404-1.68,1.195
			c0,0.486,0.28,0.797,0.709,0.797C46.612,10.121,47.184,9.323,47.219,8.162L47.219,8.162z M48.646,11.648h-1.625l0.036-0.813
			c-0.493,0.649-1.155,0.949-2.053,0.949c-1.065,0-1.796-0.872-1.796-2.133c0-1.911,1.27-3.02,3.447-3.02
			c0.221,0,0.508,0.017,0.798,0.058c0.06-0.259,0.076-0.371,0.076-0.508c0-0.516-0.34-0.712-1.259-0.712
			c-0.557,0-1.192,0.084-1.626,0.223l-0.28,0.079l-0.17,0.051l0.273-1.755c0.979-0.304,1.623-0.421,2.345-0.421
			c1.687,0,2.579,0.795,2.579,2.294c0,0.391-0.034,0.679-0.161,1.553l-0.413,2.773l-0.061,0.5l-0.055,0.399l-0.036,0.271
			L48.646,11.648L48.646,11.648z"/>
		<path fill="#EC2127" d="M54.122,3.758c-0.059-0.013-0.123-0.021-0.198-0.021c-0.644,0-1.011,0.342-1.613,1.274l0.174-1.189h-1.772
			l-1.199,7.826h1.963c0.704-4.783,0.89-5.608,1.829-5.608c0.061,0,0.057-0.006,0.137,0.007c0.177-0.942,0.417-1.636,0.747-2.268
			L54.122,3.758L54.122,3.758z"/>
	</g>
	<g>
		<path fill="#F89620" d="M45.896,19.238c0,1.773-0.549,2.818-1.414,2.818c-0.632,0.019-1.016-0.686-1.016-1.739
			c0-1.245,0.561-2.657,1.458-2.657C45.646,17.66,45.896,18.425,45.896,19.238L45.896,19.238z M47.824,19.271
			c0-1.973-0.975-3.507-2.806-3.507c-2.108,0-3.475,1.865-3.475,4.614c0,1.967,0.808,3.575,2.805,3.575
			C46.362,23.953,47.824,22.527,47.824,19.271L47.824,19.271z"/>
		<path fill="#F89620" d="M42.175,14.379l-0.3,2.085c-0.652-0.368-1.126-0.521-1.638-0.521c-1.37,0-2.326,1.49-2.326,3.607
			c0,1.462,0.641,2.346,1.707,2.346c0.455,0,0.953-0.153,1.557-0.494l-0.316,2.194c-0.678,0.208-1.12,0.28-1.622,0.28
			c-1.975,0-3.203-1.596-3.203-4.155c0-3.443,1.696-5.846,4.126-5.846c0.314,0,0.593,0.039,0.823,0.103l0.75,0.212
			C41.964,14.283,42.012,14.3,42.175,14.379L42.175,14.379z"/>
		<path fill="#F89620" d="M30.054,15.812c-0.055-0.016-0.12-0.021-0.187-0.021c-0.596,0-0.943,0.344-1.501,1.273l0.161-1.188H26.87
			l-1.118,7.826h1.83c0.658-4.787,0.833-5.611,1.711-5.611c0.051,0,0.057,0,0.133,0.01c0.165-0.947,0.388-1.641,0.696-2.273
			L30.054,15.812L30.054,15.812z"/>
		<path fill="#F89620" d="M53.962,23.618h-1.729l0.089-0.764c-0.503,0.603-1.026,0.868-1.695,0.868c-1.334,0-2.215-1.294-2.215-3.25
			c0-2.598,1.368-4.803,2.982-4.803c0.713,0,1.255,0.337,1.754,1.079l0.404-2.752h1.802L53.962,23.618L53.962,23.618z
			 M51.257,21.776c0.861,0,1.455-1.086,1.455-2.636c0-0.998-0.34-1.533-0.969-1.533c-0.831,0-1.424,1.088-1.424,2.634
			C50.319,21.261,50.638,21.776,51.257,21.776L51.257,21.776z"/>
		<path fill="#F89620" d="M12.891,23.585c-0.622,0.216-1.229,0.32-1.875,0.32c-2.043,0-3.111-1.207-3.111-3.505
			c0-2.687,1.358-4.668,3.199-4.668c1.509,0,2.472,1.108,2.472,2.847c0,0.575-0.066,1.139-0.222,1.932H9.705
			c-0.012,0.116-0.016,0.176-0.016,0.243c0,0.912,0.547,1.372,1.607,1.372c0.655,0,1.246-0.152,1.902-0.495L12.891,23.585
			L12.891,23.585z M11.867,18.93c0.009-0.165,0.014-0.297,0.014-0.397c0-0.639-0.322-1.013-0.865-1.013
			c-0.585,0-1.001,0.502-1.168,1.401L11.867,18.93L11.867,18.93z"/>
		<path fill="#F89620" d="M34.664,23.585c-0.625,0.216-1.233,0.32-1.877,0.32c-2.048,0-3.112-1.207-3.112-3.505
			c0-2.687,1.357-4.668,3.199-4.668c1.509,0,2.475,1.108,2.475,2.847c0,0.575-0.069,1.139-0.232,1.932h-3.639
			c-0.013,0.116-0.019,0.176-0.019,0.243c0,0.912,0.546,1.372,1.607,1.372c0.654,0,1.247-0.152,1.903-0.495L34.664,23.585
			L34.664,23.585z M33.635,18.93c0.013-0.165,0.019-0.297,0.019-0.397c0-0.639-0.324-1.013-0.866-1.013
			c-0.584,0-1,0.502-1.169,1.401L33.635,18.93L33.635,18.93z"/>
		<path fill="#F89620" d="M60.207,23.585c-0.632,0.216-1.231,0.32-1.881,0.32c-2.043,0-3.112-1.207-3.112-3.505
			c0-2.687,1.36-4.668,3.201-4.668c1.509,0,2.47,1.108,2.47,2.847c0,0.575-0.063,1.139-0.225,1.932h-3.645
			C57.004,20.627,57,20.687,57,20.754c0,0.912,0.547,1.372,1.609,1.372c0.654,0,1.244-0.152,1.901-0.495L60.207,23.585
			L60.207,23.585z M59.179,18.93c0.008-0.165,0.013-0.297,0.013-0.397c0-0.639-0.319-1.013-0.865-1.013
			c-0.584,0-0.998,0.502-1.168,1.401L59.179,18.93L59.179,18.93z"/>
		<path fill="#F89620" d="M7.474,16.165c-0.359-0.239-0.845-0.448-1.53-0.448c-0.74,0-1.335,0.152-1.335,0.94
			c0,1.391,2.698,0.871,2.698,3.848c0,2.713-1.78,3.416-3.392,3.416c-0.717,0-1.541-0.238-2.149-0.508l0.437-1.993
			c0.368,0.334,1.107,0.562,1.713,0.562c0.576,0,1.479-0.157,1.479-1.162c0-1.577-2.697-0.99-2.697-3.756
			c0-2.529,1.576-3.287,3.096-3.287c0.855,0,1.659,0.126,2.132,0.438L7.474,16.165L7.474,16.165z"/>
		<path fill="#F89620" d="M18.251,23.583c-0.378,0.182-0.883,0.301-1.626,0.301c-1.6,0-2.593-1.598-2.593-3.545
			c0-2.549,1.436-4.581,3.548-4.581c0.46,0,1.163,0.199,1.719,0.521l-0.406,1.869c-0.392-0.259-0.8-0.423-1.222-0.423
			c-0.979,0-1.677,0.898-1.677,2.505c0,0.925,0.506,1.685,1.308,1.685c0.477,0,0.812-0.101,1.222-0.341L18.251,23.583L18.251,23.583
			z"/>
		<path fill="#F89620" d="M25.097,21.624c-0.093,0.673-0.181,1.326-0.233,2.027h-1.762l0.148-1.264h-0.019
			c-0.552,0.859-1.121,1.445-2.12,1.445c-1.105,0-1.705-1.164-1.705-2.685c0-0.524,0.032-0.82,0.15-1.639l0.497-3.622h1.962
			l-0.526,3.633c-0.054,0.391-0.127,0.778-0.127,1.182c0,0.458,0.208,0.92,0.736,0.892c0.804,0,1.278-0.982,1.413-2.129l0.542-3.577
			h1.897L25.097,21.624L25.097,21.624z"/>
		<g>
			<polygon fill="#F89620" points="62.034,23.559 61.737,23.559 61.737,22.261 61.309,22.261 61.309,21.981 62.463,21.981 
				62.463,22.261 62.034,22.261 			"/>
			<polygon fill="#F89620" points="64,23.559 63.723,23.559 63.723,22.24 63.719,22.24 63.454,23.559 63.164,23.559 62.905,22.24 
				62.901,22.24 62.901,23.559 62.625,23.559 62.625,21.981 63.057,21.981 63.314,23.225 63.318,23.225 63.571,21.981 64,21.981 			
				"/>
		</g>
	</g>
</g>
</svg>
