<?xml version="1.0" encoding="utf-8"?>
<!-- Generator: Adobe Illustrator 15.1.0, SVG Export Plug-In . SVG Version: 6.00 Build 0)  -->
<!DOCTYPE svg PUBLIC "-//W3C//DTD SVG 1.1//EN" "http://www.w3.org/Graphics/SVG/1.1/DTD/svg11.dtd">
<svg version="1.1" id="Layer_1" xmlns="http://www.w3.org/2000/svg" xmlns:xlink="http://www.w3.org/1999/xlink" x="0px" y="0px"
	 width="24px" height="24px" viewBox="0 0 24 24" enable-background="new 0 0 24 24" xml:space="preserve">
<g>
	<g>
		<circle fill="#AD010B" cx="12" cy="12" r="11.988"/>
	</g>
	<path fill="#FFFFFF" d="M3.137,10.429l7.958,8.346l-3.812-8.352L3.137,10.429z M8.33,10.421l3.654,8.27l3.625-8.28L8.33,10.421
		L8.33,10.421z M20.537,10.403l-3.883,0.006l-3.778,8.362L20.537,10.403z M8.779,9.463l6.526-0.01l-3.261-3.402L8.779,9.463z
		 M17.648,5.75l-4.754,0.007l3.262,3.397L17.648,5.75z M6.274,5.767l1.549,3.508l3.356-3.515L6.274,5.767z M20.545,9.446
		l-2.096-3.133l-1.371,3.138L20.545,9.446z M3.437,9.471l3.42-0.005L5.506,6.4L3.437,9.471z M5.32,5.22l13.293-0.019l3.291,4.93
		l-9.986,10.7L1.904,10.294L5.32,5.22z"/>
</g>
</svg>
