<?xml version="1.0" encoding="utf-8"?>
<!-- Generator: Adobe Illustrator 15.1.0, SVG Export Plug-In . SVG Version: 6.00 Build 0)  -->
<!DOCTYPE svg PUBLIC "-//W3C//DTD SVG 1.1//EN" "http://www.w3.org/Graphics/SVG/1.1/DTD/svg11.dtd">
<svg version="1.1" id="Layer_1" xmlns="http://www.w3.org/2000/svg" xmlns:xlink="http://www.w3.org/1999/xlink" x="0px" y="0px"
	 width="70px" height="25px" viewBox="0 0 70 25" enable-background="new 0 0 70 25" xml:space="preserve">
<g>
	<g>
		<polygon fill="#0057A0" points="25.28,22.111 28.481,3.326 33.602,3.326 30.398,22.111 		"/>
		<path fill="#0057A0" d="M48.969,3.789C47.954,3.408,46.364,3,44.38,3c-5.06,0-8.624,2.548-8.654,6.199
			c-0.028,2.699,2.545,4.205,4.486,5.104c1.993,0.921,2.664,1.508,2.654,2.33c-0.014,1.26-1.592,1.835-3.063,1.835
			c-2.05,0-3.139-0.284-4.819-0.986l-0.66-0.299l-0.719,4.206c1.196,0.523,3.407,0.979,5.703,1.002c5.383,0,8.877-2.519,8.916-6.418
			c0.02-2.137-1.344-3.764-4.298-5.104C42.136,10,41.04,9.42,41.052,8.54c0-0.781,0.928-1.616,2.932-1.616
			c1.674-0.026,2.887,0.339,3.832,0.72l0.459,0.217L48.969,3.789"/>
		<path fill="#0057A0" d="M62.099,3.344h-3.957c-1.225,0-2.143,0.334-2.681,1.558l-7.604,17.215h5.377c0,0,0.879-2.314,1.078-2.822
			c0.587,0,5.811,0.008,6.558,0.008c0.153,0.657,0.623,2.814,0.623,2.814h4.751L62.099,3.344 M55.785,15.453
			c0.423-1.083,2.04-5.252,2.04-5.252c-0.031,0.05,0.42-1.087,0.679-1.793l0.346,1.62c0,0,0.98,4.484,1.186,5.424L55.785,15.453
			L55.785,15.453z"/>
		<path fill="#0057A0" d="M20.985,3.34L15.972,16.15l-0.534-2.604c-0.933-3.001-3.841-6.252-7.091-7.88l4.583,16.429l5.418-0.007
			L26.409,3.34H20.985"/>
		<path fill="#FAA61A" d="M11.322,3.329H3.065L3,3.719c6.423,1.555,10.674,5.313,12.438,9.828l-1.795-8.632
			C13.333,3.725,12.434,3.37,11.322,3.329"/>
	</g>
</g>
</svg>
