<?xml version="1.0" encoding="utf-8"?>
<!-- Generator: Adobe Illustrator 15.1.0, SVG Export Plug-In . SVG Version: 6.00 Build 0)  -->
<!DOCTYPE svg PUBLIC "-//W3C//DTD SVG 1.1//EN" "http://www.w3.org/Graphics/SVG/1.1/DTD/svg11.dtd">
<svg version="1.1" id="Layer_1" xmlns="http://www.w3.org/2000/svg" xmlns:xlink="http://www.w3.org/1999/xlink" x="0px" y="0px"
	 width="95px" height="25px" viewBox="0 0 95 25" enable-background="new 0 0 95 25" xml:space="preserve">
<g id="Layer_1_1_">
	<path id="path20" fill="#0099D6" d="M93,12.64L82.203,6.071l-2.727,14.268L93,12.64z M77.873,8.563l0.764-3.971
		C77.84,4.193,74.955,3.4,72.42,3.4c-3.447,0-6.523,0.969-8.744,2.764c-2.451,2.022-3.99,5.013-3.99,8.803
		c0,2.649,1.055,4.785,2.623,6.038C63.959,22.344,66.182,23,68.773,23c2.479,0,4.928-0.599,6.551-1.111l1.986-10.431l-4.75,0.004
		l-1.365,7.18c-0.369,0.143-0.855,0.229-1.738,0.229c-2.477,0-4.414-1.227-4.414-4.245c0-2.651,1.139-4.701,2.762-5.869
		c1.141-0.769,2.678-1.196,4.414-1.196C73.93,7.56,77.047,8.221,77.873,8.563"/>
	<path id="path22" fill="#231F20" d="M12.234,12.531H8.088v1.689h2.072v2.926c-0.277,0.14-0.854,0.244-1.619,0.244
		c-2.438,0-4.076-1.585-4.076-4.25c0-2.734,1.76-4.215,4.268-4.215c1.236,0,2.021,0.227,2.665,0.505l0.47-1.724
		c-0.539-0.262-1.672-0.558-3.117-0.558c-3.885,0-6.531,2.386-6.531,6.096c-0.018,1.777,0.592,3.327,1.637,4.319
		c1.115,1.063,2.613,1.568,4.598,1.568c1.568,0,3.031-0.384,3.78-0.662V12.531z M18.643,10.337c-2.561,0-4.389,1.707-4.389,4.493
		c0,2.718,1.847,4.372,4.25,4.372c2.159,0,4.354-1.394,4.354-4.511C22.859,12.113,21.168,10.337,18.643,10.337 M18.591,11.904
		c1.463,0,2.056,1.516,2.056,2.839c0,1.707-0.854,2.909-2.073,2.909c-1.307,0-2.107-1.236-2.107-2.874
		C16.466,13.367,17.076,11.904,18.591,11.904 M25.053,19.011h2.125v-4.424c0.278,0.052,0.645,0.069,1.044,0.069
		c1.516,0,2.857-0.401,3.711-1.254c0.66-0.627,1.01-1.551,1.01-2.665c0-1.098-0.453-2.021-1.15-2.596
		c-0.748-0.627-1.898-0.958-3.467-0.958c-1.445,0-2.507,0.104-3.273,0.244V19.011z M27.178,8.926
		c0.227-0.052,0.645-0.104,1.236-0.104c1.48,0,2.387,0.697,2.387,2.003c0,1.376-0.977,2.16-2.578,2.16
		c-0.435,0-0.784-0.018-1.044-0.088V8.926z M41.27,13.907c0-1.847-0.785-3.57-3.502-3.57c-1.342,0-2.439,0.365-3.064,0.749
		l0.416,1.393c0.576-0.365,1.447-0.627,2.283-0.627c1.498,0,1.725,0.924,1.725,1.48v0.14c-3.137-0.018-5.035,1.063-5.035,3.205
		c0,1.289,0.959,2.525,2.666,2.525c1.098,0,1.984-0.471,2.508-1.132h0.053l0.139,0.94h1.934c-0.088-0.522-0.121-1.271-0.121-2.038
		V13.907z M39.178,16.032c0,0.139-0.018,0.313-0.068,0.47c-0.191,0.61-0.818,1.167-1.672,1.167c-0.68,0-1.221-0.383-1.221-1.219
		c0-1.289,1.447-1.62,2.961-1.585V16.032z M42.697,10.528l3.1,7.785c0.105,0.209,0.123,0.331,0.123,0.418
		c0,0.104-0.053,0.227-0.141,0.384c-0.295,0.574-0.766,1.08-1.166,1.341c-0.436,0.313-0.889,0.506-1.254,0.592l0.486,1.812
		c0.541-0.069,1.412-0.348,2.248-1.097c1.01-0.871,1.793-2.282,2.961-5.452l2.125-5.782h-2.299l-1.324,4.528
		c-0.156,0.558-0.314,1.185-0.453,1.673h-0.053c-0.121-0.488-0.295-1.133-0.469-1.655l-1.533-4.546H42.697"/>
</g>
</svg>
