<?xml version="1.0" encoding="utf-8"?>
<!-- Generator: Adobe Illustrator 15.1.0, SVG Export Plug-In . SVG Version: 6.00 Build 0)  -->
<!DOCTYPE svg PUBLIC "-//W3C//DTD SVG 1.1//EN" "http://www.w3.org/Graphics/SVG/1.1/DTD/svg11.dtd">
<svg version="1.1" id="Layer_2" xmlns="http://www.w3.org/2000/svg" xmlns:xlink="http://www.w3.org/1999/xlink" x="0px" y="0px"
	 width="52.375px" height="27.833px" viewBox="0 0 52.375 27.833" enable-background="new 0 0 52.375 27.833" xml:space="preserve">
<g>
	<path fill="#FFFFFF" d="M51.019,13.871c-0.732,3.445-2.475,6.433-5.228,8.965c-2.438,2.262-5.438,3.451-9.002,3.567
		c-0.685,0.022-2.557,0.034-5.615,0.034c-0.574,0-1.435-0.018-2.581-0.053c-1.147-0.035-2.008-0.053-2.582-0.053
		c-0.34,0-0.481-0.135-0.424-0.403c0.274-1.29,0.735-3.226,1.384-5.81c0.649-2.584,1.11-4.521,1.384-5.811
		c0.287-1.349,0.666-3.367,1.138-6.057c0.472-2.689,0.85-4.702,1.134-6.038c0.052-0.245,0.253-0.393,0.603-0.439
		c0.852-0.094,2.228-0.141,4.126-0.141c3.609,0,5.936,0.053,6.979,0.159c2.718,0.281,4.742,0.984,6.073,2.109
		c1.252,1.055,2.104,2.531,2.557,4.43C51.404,10.126,51.422,11.972,51.019,13.871z M44.286,13.871
		c0.421-1.98,0.173-3.598-0.744-4.852c-0.919-1.301-2.363-1.952-4.332-1.952c-1.805,0-2.758,0.241-2.86,0.721
		c-0.147,0.692-0.379,1.731-0.698,3.12c-0.319,1.389-0.551,2.429-0.699,3.121c-0.144,0.679-0.35,1.702-0.617,3.067
		s-0.474,2.394-0.62,3.084c-0.107,0.505,0.776,0.757,2.651,0.757c2.027,0,3.765-0.675,5.211-2.022
		C42.94,17.638,43.843,15.958,44.286,13.871z"/>
	<polygon fill="#FFFFFF" points="21.5,26.833 16.5,26.833 22.5,0.833 27.5,0.833 	"/>
	<polygon fill="#FFFFFF" points="13.5,26.833 8.5,26.833 13.5,4.833 18.5,4.833 	"/>
	<polygon fill="#FFFFFF" points="3.5,13.833 0.5,26.833 5.5,26.833 8.455,13.833 	"/>
</g>
</svg>
