<?xml version="1.0" encoding="utf-8"?>
<!-- Generator: Adobe Illustrator 15.1.0, SVG Export Plug-In . SVG Version: 6.00 Build 0)  -->
<!DOCTYPE svg PUBLIC "-//W3C//DTD SVG 1.1//EN" "http://www.w3.org/Graphics/SVG/1.1/DTD/svg11.dtd">
<svg version="1.1" id="Layer_2" xmlns="http://www.w3.org/2000/svg" xmlns:xlink="http://www.w3.org/1999/xlink" x="0px" y="0px"
	 width="202.25px" height="27.833px" viewBox="0 0 202.25 27.833" enable-background="new 0 0 202.25 27.833" xml:space="preserve">
<g>
	<g>
		<path fill="#AD0000" d="M51.019,13.871c-0.732,3.445-2.475,6.433-5.228,8.965c-2.438,2.262-5.438,3.451-9.002,3.568
			c-0.685,0.022-2.557,0.034-5.615,0.034c-0.574,0-1.435-0.018-2.581-0.053c-1.147-0.035-2.008-0.053-2.582-0.053
			c-0.34,0-0.481-0.134-0.424-0.403c0.274-1.29,0.735-3.226,1.384-5.81s1.11-4.521,1.384-5.81c0.287-1.349,0.666-3.367,1.138-6.057
			c0.472-2.689,0.85-4.702,1.134-6.038c0.052-0.245,0.253-0.393,0.603-0.439c0.852-0.094,2.228-0.141,4.126-0.141
			c3.609,0,5.936,0.053,6.979,0.159c2.718,0.281,4.742,0.984,6.073,2.109c1.252,1.055,2.104,2.531,2.557,4.43
			C51.404,10.126,51.422,11.972,51.019,13.871z M44.286,13.871c0.421-1.98,0.173-3.598-0.744-4.852
			c-0.919-1.301-2.363-1.952-4.332-1.952c-1.805,0-2.758,0.241-2.86,0.721c-0.147,0.692-0.379,1.731-0.698,3.12
			s-0.551,2.429-0.699,3.121c-0.144,0.679-0.35,1.702-0.617,3.067c-0.267,1.365-0.474,2.394-0.62,3.084
			c-0.107,0.505,0.776,0.757,2.651,0.757c2.027,0,3.765-0.675,5.211-2.022C42.94,17.638,43.843,15.957,44.286,13.871z"/>
		<path fill="#AD0000" d="M70.505,17.545c-0.191,0.902-0.424,2.243-0.697,4.024c-0.273,1.782-0.504,3.118-0.694,4.009
			c-0.1,0.469-0.358,0.72-0.776,0.755c-1.476,0.105-3.151,0.159-5.026,0.159c-0.223,0-0.3-0.337-0.233-1.012
			c0.067-0.674,0.049-1.017-0.054-1.027c-0.104,0.046-0.248,0.146-0.433,0.299c-1.594,1.323-3.141,1.985-4.641,1.985
			c-2.285,0-3.986-0.901-5.102-2.707c-1.06-1.687-1.34-3.702-0.842-6.047c0.576-2.707,1.771-4.887,3.587-6.539
			c1.887-1.711,4.155-2.565,6.803-2.565c1.84,0,3.156,0.645,3.948,1.933c0.035,0.058,0.069,0.088,0.104,0.088
			c0.105,0,0.286-0.284,0.542-0.853c0.255-0.567,0.477-0.852,0.665-0.852c0.434,0,1.234,0.123,2.4,0.369
			c1.11,0.235,1.9,0.434,2.369,0.598c0.161,0.071,0.229,0.164,0.204,0.281c-0.01,0.048-0.054,0.17-0.131,0.37
			C71.673,12.934,71.008,15.178,70.505,17.545z M64.822,17.649c0.212-0.995,0.073-1.818-0.415-2.469
			c-0.489-0.65-1.237-0.976-2.245-0.976s-1.891,0.322-2.649,0.967c-0.758,0.644-1.244,1.47-1.458,2.478
			c-0.202,0.949-0.047,1.765,0.465,2.443c0.512,0.681,1.236,1.021,2.174,1.021c0.996,0,1.879-0.326,2.651-0.977
			C64.116,19.486,64.608,18.658,64.822,17.649z"/>
		<path fill="#AD0000" d="M84.989,21.183c-0.074,0.352-0.232,0.886-0.472,1.601c-0.24,0.714-0.395,1.238-0.466,1.573
			c-0.071,0.333-0.151,0.547-0.242,0.641c-0.09,0.095-0.313,0.229-0.666,0.405c-1.688,0.832-3.453,1.247-5.292,1.247
			c-3.387,0-4.805-1.294-4.254-3.885c0.164-0.772,0.441-1.937,0.829-3.488c0.389-1.554,0.666-2.717,0.83-3.489
			c0.109-0.516-0.135-0.774-0.732-0.774c-0.047,0-0.123,0-0.229,0c-0.108,0.012-0.185,0.018-0.232,0.018
			c-0.445,0-0.634-0.157-0.567-0.474c0.04-0.188,0.116-0.475,0.227-0.861c0.111-0.388,0.187-0.674,0.227-0.862
			c0.052-0.245,0.118-0.62,0.195-1.125c0.078-0.503,0.143-0.879,0.195-1.124c0.05-0.235,0.452-0.363,1.208-0.387
			c0.424-0.011,0.678-0.129,0.76-0.352c0.165-0.445,0.338-1.148,0.519-2.109c0.274-1.512,0.404-2.233,0.39-2.163
			c0.289-1.359,0.562-2.04,0.82-2.04c0.316,0,0.752,0.071,1.309,0.211c0.636,0.153,1.08,0.241,1.333,0.264
			c0.581,0.083,1.459,0.194,2.636,0.334c0.288,0.024,0.413,0.123,0.376,0.299c-0.1,0.469-0.289,1.178-0.566,2.126
			c-0.278,0.95-0.468,1.665-0.57,2.145c-0.122,0.575-0.013,0.862,0.327,0.862c0.41,0,1.035-0.018,1.875-0.053
			c0.839-0.035,1.47-0.053,1.892-0.053c0.258,0,0.368,0.088,0.331,0.264c-0.058,0.27-0.173,0.674-0.346,1.213
			c-0.173,0.539-0.289,0.942-0.346,1.212c-0.06,0.282-0.141,0.691-0.244,1.23c-0.103,0.54-0.184,0.949-0.244,1.231
			c-0.052,0.245-0.248,0.368-0.588,0.368c-0.234,0-0.625-0.008-1.172-0.026c-0.547-0.018-0.938-0.025-1.173-0.025h-1.318
			c-0.176,0-0.318,0.258-0.428,0.773c-0.06,0.281-0.148,0.697-0.265,1.247c-0.108,0.563-0.191,0.979-0.248,1.249
			c-0.209,0.983-0.242,1.664-0.099,2.038c0.209,0.505,0.776,0.757,1.702,0.757c0.293,0,0.727-0.068,1.3-0.202
			c0.573-0.135,0.972-0.203,1.194-0.203C84.949,20.796,85.044,20.925,84.989,21.183z"/>
		<path fill="#AD0000" d="M105.274,17.545c-0.191,0.902-0.424,2.243-0.697,4.024c-0.273,1.782-0.504,3.118-0.694,4.009
			c-0.1,0.469-0.358,0.72-0.776,0.755c-1.476,0.105-3.151,0.159-5.026,0.159c-0.223,0-0.3-0.337-0.233-1.012
			c0.067-0.674,0.049-1.017-0.054-1.027c-0.104,0.046-0.248,0.146-0.433,0.299c-1.594,1.323-3.141,1.985-4.641,1.985
			c-2.285,0-3.986-0.901-5.102-2.707c-1.06-1.687-1.34-3.702-0.842-6.047c0.576-2.707,1.771-4.887,3.587-6.539
			c1.887-1.711,4.155-2.565,6.803-2.565c1.84,0,3.156,0.645,3.948,1.933c0.035,0.058,0.069,0.088,0.104,0.088
			c0.105,0,0.286-0.284,0.542-0.853c0.255-0.567,0.477-0.852,0.665-0.852c0.434,0,1.234,0.123,2.4,0.369
			c1.11,0.235,1.9,0.434,2.369,0.598c0.161,0.071,0.229,0.164,0.204,0.281c-0.01,0.048-0.054,0.17-0.131,0.37
			C106.442,12.934,105.778,15.178,105.274,17.545z M99.592,17.649c0.212-0.995,0.073-1.818-0.415-2.469
			c-0.489-0.65-1.237-0.976-2.245-0.976s-1.891,0.322-2.649,0.967c-0.758,0.644-1.244,1.47-1.458,2.478
			c-0.202,0.949-0.047,1.765,0.465,2.443c0.512,0.681,1.236,1.021,2.174,1.021c0.996,0,1.879-0.326,2.651-0.977
			C98.885,19.486,99.378,18.658,99.592,17.649z"/>
		<path d="M127.786,17.737c-0.523,2.462-1.663,4.519-3.421,6.171c-1.873,1.758-4.018,2.637-6.432,2.637
			c-1.758,0-3.068-0.505-3.932-1.513c-0.067-0.069-0.13-0.104-0.189-0.104c-0.117,0-0.271,0.217-0.463,0.65s-0.363,0.673-0.513,0.72
			c-0.212,0.059-1.888,0.088-5.028,0.088c-0.738,0-1.079-0.135-1.022-0.403c0.008-0.036,0.038-0.124,0.091-0.264
			c0.631-1.864,1.502-5.415,2.616-10.653c1.063-5.003,1.813-9.357,2.249-13.061l0.023-0.193c0.04-0.188,0.244-0.292,0.612-0.316
			c0.261-0.011,1.299-0.099,3.115-0.264c1.279-0.117,2.311-0.176,3.096-0.176c0.223,0,0.293,0.193,0.211,0.58
			c-0.098,0.457-0.255,1.06-0.473,1.81c-0.268,0.927-0.438,1.536-0.512,1.828c-0.306,1.161-0.671,2.743-1.097,4.747
			c-0.077,0.363-0.022,0.544,0.165,0.544c0.094,0,0.191-0.046,0.294-0.14c1.294-1.125,2.796-1.688,4.507-1.688
			c2.566,0,4.385,0.874,5.455,2.619C128.131,12.974,128.347,15.101,127.786,17.737z M121.464,17.545
			c0.207-0.973,0.083-1.796-0.371-2.471c-0.455-0.674-1.162-1.011-2.123-1.011c-0.984,0-1.833,0.337-2.544,1.011
			c-0.712,0.675-1.173,1.51-1.385,2.506c-0.219,1.03-0.121,1.862,0.295,2.496c0.444,0.667,1.17,1.002,2.178,1.002
			c0.996,0,1.86-0.346,2.594-1.038C120.795,19.396,121.247,18.563,121.464,17.545z"/>
		<path d="M146.853,17.685c-0.568,2.672-1.847,4.841-3.835,6.505c-1.988,1.663-4.313,2.495-6.973,2.495
			c-2.578,0-4.525-0.82-5.841-2.46c-1.315-1.642-1.698-3.75-1.15-6.328c0.577-2.719,1.843-4.925,3.797-6.618
			c1.954-1.694,4.29-2.541,7.009-2.541c2.648,0,4.616,0.83,5.905,2.487C147.053,12.883,147.415,15.037,146.853,17.685z
			 M141.087,17.685c0.196-0.925,0.083-1.743-0.341-2.452c-0.423-0.708-1.092-1.063-2.006-1.063c-0.926,0-1.765,0.362-2.518,1.09
			c-0.706,0.679-1.159,1.488-1.358,2.425c-0.202,0.95-0.094,1.765,0.324,2.443c0.442,0.728,1.128,1.091,2.054,1.091
			c0.914,0,1.746-0.363,2.499-1.091C140.437,19.449,140.885,18.635,141.087,17.685z"/>
		<path d="M165.89,17.685c-0.568,2.672-1.847,4.841-3.835,6.505c-1.988,1.663-4.313,2.495-6.973,2.495
			c-2.578,0-4.525-0.82-5.841-2.46c-1.315-1.642-1.698-3.75-1.15-6.328c0.577-2.719,1.843-4.925,3.797-6.618
			c1.954-1.694,4.29-2.541,7.009-2.541c2.648,0,4.616,0.83,5.905,2.487C166.09,12.883,166.452,15.037,165.89,17.685z
			 M160.124,17.685c0.196-0.925,0.083-1.743-0.341-2.452c-0.423-0.708-1.092-1.063-2.006-1.063c-0.926,0-1.765,0.362-2.518,1.09
			c-0.706,0.679-1.159,1.488-1.358,2.425c-0.202,0.95-0.094,1.765,0.324,2.443c0.442,0.728,1.128,1.091,2.054,1.091
			c0.914,0,1.746-0.363,2.499-1.091C159.474,19.449,159.922,18.635,160.124,17.685z"/>
		<path d="M188.147,14.854c-0.551,2.591-2.241,4.56-5.07,5.907c-0.259,0.116-0.402,0.239-0.43,0.369
			c-0.043,0.199,0.326,1.027,1.105,2.487c0.78,1.458,1.162,2.224,1.147,2.293c-0.067,0.317-1.653,0.475-4.759,0.475
			c-1.195,0-1.854-0.151-1.978-0.456c-0.302-0.785-0.795-1.911-1.479-3.375c-0.044-0.07-1.081-0.153-3.112-0.246
			c-0.077,0.362-0.194,0.943-0.352,1.74c-0.158,0.797-0.278,1.388-0.36,1.774c-0.074,0.352-0.286,0.546-0.633,0.581
			c-0.216,0.022-1.145,0.034-2.785,0.034c-1.418,0-2.239-0.022-2.464-0.069c-0.304-0.059-0.41-0.299-0.32-0.722l2.286-10.758
			c0.307-1.441,0.712-3.597,1.217-6.468c0.505-2.871,0.909-5.021,1.213-6.451c0.06-0.282,0.249-0.428,0.568-0.439
			c0.621,0,1.555-0.012,2.802-0.036c0.334-0.024,0.917-0.093,1.75-0.211c0.737-0.105,1.312-0.159,1.722-0.159
			c0.188,0,0.245,0.17,0.173,0.51c-0.095,0.445-0.258,1.049-0.49,1.81c-0.271,0.891-0.448,1.5-0.529,1.828
			c-0.642,2.52-1.109,4.472-1.402,5.854c-0.07,0.329-0.065,0.499,0.015,0.51c0.12-0.07,0.288-0.2,0.504-0.387
			c1.859-1.582,3.879-2.373,6.059-2.373c2.051,0,3.58,0.469,4.588,1.406C188.234,11.328,188.573,12.852,188.147,14.854z
			 M180.926,15.998c0.301-1.419-0.351-2.127-1.956-2.127c-0.715,0-1.534,0.269-2.457,0.808c-0.989,0.575-1.557,1.202-1.7,1.881
			c-0.207,0.974-0.197,1.559,0.03,1.759c0.181,0.141,0.84,0.21,1.977,0.21C179.198,18.528,180.567,17.685,180.926,15.998z"/>
	</g>
	<polygon fill="#AD0000" points="21.5,26.833 16.5,26.833 22.5,0.833 27.5,0.833 	"/>
	<polygon fill="#AD0000" points="13.5,26.833 8.5,26.833 13.5,4.833 18.5,4.833 	"/>
	<polygon fill="#AD0000" points="3.5,13.833 0.5,26.833 5.5,26.833 8.455,13.833 	"/>
	<g>
		<path d="M188.529,24.409c0,0.425-0.149,0.79-0.445,1.093c-0.295,0.302-0.653,0.452-1.074,0.452c-0.424,0-0.782-0.154-1.075-0.456
			c-0.293-0.306-0.44-0.668-0.44-1.089c0-0.424,0.147-0.786,0.44-1.089c0.293-0.302,0.651-0.452,1.075-0.452
			c0.421,0,0.779,0.15,1.074,0.452C188.38,23.623,188.529,23.985,188.529,24.409z"/>
		<path d="M193.704,21.567c-0.006,0-0.136-0.033-0.394-0.103c-0.256-0.07-0.464-0.104-0.623-0.104c-0.384,0-0.689,0.116-0.919,0.347
			c-0.228,0.231-0.342,0.538-0.342,0.922c0,0.396,0.126,0.709,0.375,0.933c0.25,0.229,0.576,0.341,0.977,0.341
			c0.19,0,0.403-0.047,0.641-0.147c0.236-0.094,0.351-0.145,0.337-0.145c0.073,0,0.168,0.274,0.284,0.822
			c0.1,0.501,0.149,0.832,0.149,0.996c0,0.165-0.269,0.305-0.804,0.421c-0.413,0.09-0.747,0.136-1.002,0.136
			c-0.949,0-1.731-0.319-2.348-0.958c-0.617-0.638-0.924-1.434-0.924-2.387c0-0.945,0.307-1.736,0.926-2.383
			c0.619-0.645,1.402-0.968,2.346-0.968c0.643,0,1.207,0.139,1.695,0.414c0.111,0.062,0.169,0.118,0.169,0.176
			c0,0.055-0.065,0.31-0.194,0.763c-0.122,0.435-0.201,0.697-0.237,0.789C193.779,21.522,193.742,21.567,193.704,21.567z"/>
		<path d="M199.914,25.908c-0.146,0-0.354-0.015-0.621-0.044c-0.289-0.031-0.495-0.05-0.615-0.053
			c-0.279-0.008-0.726-0.013-1.339-0.013c-0.707,0-1.208,0.008-1.5,0.026c-0.061,0.003-0.211,0.017-0.452,0.039
			c-0.19,0.021-0.344,0.031-0.46,0.031c-0.078,0-0.117-0.054-0.117-0.161c-0.004-0.108-0.004-0.253,0-0.434
			c0.01-0.211,0.013-0.353,0.013-0.427c0-0.083-0.015-0.202-0.04-0.363c-0.03-0.159-0.043-0.274-0.043-0.349
			c0-0.056,0.033-0.112,0.097-0.169c0.88-0.749,1.686-1.518,2.419-2.302c-0.1,0-0.25-0.005-0.452-0.014
			c-0.203-0.008-0.356-0.014-0.46-0.014c-0.154,0-0.392,0.01-0.707,0.022c-0.32,0.017-0.554,0.023-0.709,0.023
			c-0.074,0-0.111-0.025-0.111-0.077c0-0.099,0.067-0.389,0.201-0.868c0.134-0.481,0.201-0.84,0.201-1.072
			c0-0.073,0.075-0.11,0.226-0.11c0.013,0,0.27,0.029,0.771,0.084c0.413,0.043,0.974,0.064,1.682,0.064
			c0.233,0,0.579-0.004,1.043-0.012c0.464-0.01,0.814-0.014,1.046-0.014c0.143,0,0.214,0.062,0.214,0.18v1.398
			c0,0.147-0.821,1.02-2.465,2.62c1.268,0,2.131-0.044,2.588-0.13c0.039-0.008,0.067-0.012,0.084-0.012
			c0.061,0,0.091,0.022,0.091,0.07c0-0.069-0.091,0.271-0.271,1.022c-0.03,0.206-0.082,0.514-0.155,0.918
			C200.048,25.864,199.995,25.908,199.914,25.908z"/>
	</g>
</g>
</svg>
