<?xml version="1.0" encoding="utf-8"?>
<!-- Generator: Adobe Illustrator 19.1.1, SVG Export Plug-In . SVG Version: 6.00 Build 0)  -->
<svg version="1.1" id="icon-search" xmlns="http://www.w3.org/2000/svg" xmlns:xlink="http://www.w3.org/1999/xlink" x="0px"
	 y="0px" viewBox="-291 -1665.1 33 32" style="enable-background:new -291 -1665.1 33 32;" xml:space="preserve">
<style type="text/css">
	.st0{fill:url(#SVGID_1_);}
	.st1{fill:#2A2A2A;}
</style>
<g>
	<linearGradient id="SVGID_1_" gradientUnits="userSpaceOnUse" x1="-274.513" y1="-1633.8582" x2="-274.513" y2="-1664.3699">
		<stop  offset="0" style="stop-color:#FFD400"/>
		<stop  offset="0.4926" style="stop-color:#FFD400"/>
		<stop  offset="1" style="stop-color:#FFFBCC"/>
	</linearGradient>
	<path class="st0" d="M-266.2-1633.9c-0.4,0-0.8-0.1-1.1-0.3l-6.9-4.1c-0.1-0.1-0.2-0.1-0.3-0.1s-0.2,0-0.3,0.1l-6.9,4.1
		c-0.3,0.2-0.7,0.3-1.1,0.3c-0.6,0-1.3-0.3-1.7-0.8c-0.4-0.5-0.6-1.2-0.4-1.9l1.9-7.8c0.1-0.3,0-0.5-0.2-0.7l-6.2-5.6
		c-0.7-0.6-0.9-1.5-0.6-2.4c0.3-0.8,1-1.4,1.8-1.5l8.3-0.8c0.3,0,0.5-0.2,0.6-0.4l2.9-7.3c0.3-0.8,1.1-1.4,2-1.4s1.7,0.5,2,1.4
		l3,7.3c0.1,0.2,0.3,0.4,0.6,0.4l8.3,0.8c0.9,0.1,1.6,0.7,1.9,1.5c0.3,0.8,0.1,1.7-0.6,2.3l-6.2,5.6c-0.2,0.2-0.3,0.4-0.2,0.7
		l1.8,7.8c0.2,0.7,0,1.4-0.4,1.9C-264.9-1634.2-265.5-1633.9-266.2-1633.9z"/>
	<path class="st1" d="M-274.5-1663.6c0.5,0,1.1,0.3,1.3,0.9l3,7.3c0.2,0.5,0.7,0.8,1.2,0.9l8.3,0.8c1.2,0.1,1.8,1.7,0.9,2.5
		l-6.2,5.6c-0.4,0.4-0.6,0.9-0.4,1.4l1.8,7.8c0.2,1-0.5,1.8-1.4,1.8c-0.2,0-0.5-0.1-0.7-0.2l-6.9-4.1c-0.2-0.1-0.5-0.2-0.7-0.2
		s-0.5,0.1-0.7,0.2l-6.9,4.1c-0.2,0.1-0.5,0.2-0.7,0.2c-0.9,0-1.6-0.8-1.4-1.8l1.9-7.8c0.1-0.5,0-1.1-0.4-1.4l-6.2-5.6
		c-0.9-0.8-0.4-2.4,0.8-2.5l8.3-0.8c0.5,0,1-0.4,1.2-0.9l2.9-7.3C-275.6-1663.3-275.1-1663.6-274.5-1663.6 M-274.5-1665.1
		c-1.2,0-2.3,0.7-2.7,1.9l-2.9,7.3l-8.2,0.8c-1.2,0.1-2.1,0.9-2.5,2c-0.4,1.1-0.1,2.3,0.8,3.1l6.2,5.6l-1.9,7.8
		c-0.2,0.9,0,1.8,0.6,2.5c0.6,0.7,1.4,1.1,2.3,1.1c0.5,0,1-0.1,1.5-0.4l6.8-4.1l6.8,4.1c0.5,0.3,1,0.4,1.5,0.4
		c0.9,0,1.7-0.4,2.3-1.1c0.6-0.7,0.8-1.6,0.6-2.5l-1.8-7.8l6.2-5.5c0.9-0.8,1.2-2,0.8-3.1c-0.4-1.1-1.3-1.9-2.5-2l-8.2-0.8l-2.9-7.3
		C-272.3-1664.4-273.3-1665.1-274.5-1665.1L-274.5-1665.1z"/>
</g>
</svg>
