<?xml version="1.0" encoding="utf-8"?>
<!-- Generator: Adobe Illustrator 16.0.4, SVG Export Plug-In . SVG Version: 6.00 Build 0)  -->
<!DOCTYPE svg PUBLIC "-//W3C//DTD SVG 1.1//EN" "http://www.w3.org/Graphics/SVG/1.1/DTD/svg11.dtd">
<svg version="1.1" xmlns="http://www.w3.org/2000/svg" xmlns:xlink="http://www.w3.org/1999/xlink" x="0px" y="0px" width="190px"
	 height="85px" viewBox="0 0 190 85" enable-background="new 0 0 190 85" xml:space="preserve">
<g id="Vrstva_2_1_">
</g>
<g id="Vrstva_3">
	<g>
		<path fill-rule="evenodd" clip-rule="evenodd" fill="#333333" d="M114.388,58.24c-9.051,6.68-22.173,10.231-33.473,10.231
			c-15.835,0-30.096-5.854-40.887-15.598c-0.847-0.765-0.092-1.811,0.926-1.218c11.644,6.774,26.042,10.855,40.912,10.855
			c10.031,0,21.059-2.083,31.206-6.387C114.603,55.478,115.886,57.135,114.388,58.24z"/>
		<path fill-rule="evenodd" clip-rule="evenodd" fill="#333333" d="M118.154,53.939c-1.158-1.48-7.652-0.701-10.57-0.351
			c-0.884,0.104-1.021-0.668-0.224-1.227c5.182-3.639,13.671-2.589,14.656-1.37c0.994,1.229-0.261,9.74-5.116,13.802
			c-0.747,0.624-1.457,0.291-1.126-0.533C116.867,61.532,119.313,55.423,118.154,53.939z"/>
	</g>
	<g>
		<path fill-rule="evenodd" clip-rule="evenodd" fill="#333333" d="M107.789,26.655V23.12c0.004-0.539,0.409-0.897,0.896-0.895
			l15.849-0.002c0.508,0,0.913,0.368,0.913,0.893v3.032c-0.005,0.509-0.433,1.172-1.192,2.226l-8.21,11.72
			c3.047-0.071,6.271,0.386,9.04,1.942c0.624,0.35,0.791,0.871,0.84,1.38v3.772c0,0.52-0.568,1.122-1.167,0.808
			c-4.877-2.555-11.35-2.834-16.745,0.032c-0.55,0.293-1.128-0.3-1.128-0.82v-3.586c0-0.575,0.012-1.556,0.591-2.43l9.511-13.645
			l-8.281-0.001C108.199,27.546,107.793,27.185,107.789,26.655z"/>
		<path fill-rule="evenodd" clip-rule="evenodd" fill="#333333" d="M49.981,48.739H45.16c-0.459-0.029-0.825-0.374-0.863-0.814
			l0.004-24.744c0-0.496,0.416-0.891,0.93-0.891l4.49-0.001c0.47,0.023,0.846,0.379,0.876,0.832v3.229h0.091
			c1.169-3.124,3.375-4.583,6.345-4.583c3.015,0,4.905,1.459,6.255,4.583c1.17-3.124,3.826-4.583,6.661-4.583
			c2.025,0,4.23,0.833,5.58,2.708c1.53,2.083,1.216,5.103,1.216,7.758L76.742,47.85c0,0.494-0.415,0.89-0.93,0.89h-4.815
			c-0.485-0.03-0.865-0.413-0.865-0.888L70.13,34.732c0-1.04,0.091-3.644-0.135-4.633c-0.359-1.667-1.44-2.135-2.834-2.135
			c-1.171,0-2.386,0.781-2.882,2.03c-0.494,1.251-0.45,3.333-0.45,4.739V47.85c0,0.494-0.416,0.89-0.929,0.89h-4.816
			c-0.484-0.03-0.866-0.413-0.866-0.888l-0.004-13.119c0-2.759,0.45-6.819-2.97-6.819c-3.466,0-3.33,3.956-3.33,6.819L50.911,47.85
			C50.911,48.344,50.495,48.739,49.981,48.739z"/>
		<path fill-rule="evenodd" clip-rule="evenodd" fill="#333333" d="M139.091,21.767c7.155,0,11.026,6.146,11.026,13.956
			c0,7.55-4.275,13.539-11.026,13.539c-7.021,0-10.846-6.146-10.846-13.799C128.245,27.755,132.114,21.767,139.091,21.767z
			 M139.134,26.819c-3.554,0-3.779,4.841-3.779,7.862c0,3.02-0.044,9.477,3.736,9.477c3.735,0,3.915-5.208,3.915-8.383
			c0-2.083-0.09-4.583-0.721-6.562C141.745,27.495,140.664,26.819,139.134,26.819z"/>
		<path fill-rule="evenodd" clip-rule="evenodd" fill="#333333" d="M159.396,48.739h-4.803c-0.482-0.03-0.865-0.413-0.865-0.888
			l-0.01-24.754c0.042-0.453,0.441-0.807,0.928-0.807l4.472-0.001c0.42,0.022,0.768,0.309,0.856,0.693v3.785h0.091
			c1.351-3.385,3.239-4.999,6.57-4.999c2.16,0,4.276,0.781,5.626,2.917c1.26,1.979,1.26,5.31,1.26,7.707v15.571
			c-0.054,0.438-0.447,0.778-0.924,0.778h-4.833c-0.446-0.027-0.807-0.356-0.858-0.778V34.526c0-2.708,0.315-6.666-3.015-6.666
			c-1.171,0-2.251,0.78-2.791,1.978c-0.675,1.51-0.766,3.02-0.766,4.688V47.85C160.327,48.344,159.91,48.739,159.396,48.739z"/>
		<path fill-rule="evenodd" clip-rule="evenodd" fill="#333333" d="M95.157,36.923c0,1.879,0.045,3.444-0.904,5.115
			c-0.766,1.356-1.984,2.191-3.337,2.191c-1.849,0-2.931-1.41-2.931-3.498c0-4.106,3.684-4.853,7.172-4.853V36.923z M100.017,48.679
			c-0.318,0.286-0.778,0.305-1.139,0.111c-1.601-1.331-1.888-1.945-2.765-3.212c-2.646,2.695-4.52,3.504-7.948,3.504
			c-4.059,0-7.217-2.505-7.217-7.514c0-3.915,2.12-6.576,5.142-7.88c2.616-1.148,6.269-1.357,9.067-1.671v-0.625
			c0-1.149,0.09-2.504-0.587-3.496c-0.587-0.888-1.714-1.253-2.707-1.253c-1.838,0-3.473,0.942-3.875,2.895
			c-0.083,0.435-0.401,0.865-0.837,0.887l-4.673-0.506c-0.395-0.09-0.833-0.406-0.72-1.009c1.075-5.669,6.194-7.381,10.782-7.381
			c2.347,0,5.414,0.625,7.262,2.4c2.347,2.192,2.12,5.115,2.12,8.299v7.51c0,2.261,0.938,3.251,1.819,4.468
			c0.309,0.439,0.378,0.961-0.016,1.282c-0.984,0.825-2.733,2.345-3.696,3.201L100.017,48.679z"/>
		<path fill-rule="evenodd" clip-rule="evenodd" fill="#333333" d="M31.952,36.923c0,1.879,0.046,3.444-0.901,5.115
			c-0.766,1.356-1.985,2.191-3.338,2.191c-1.849,0-2.932-1.41-2.932-3.498c0-4.106,3.684-4.853,7.171-4.853V36.923z M36.813,48.679
			c-0.318,0.286-0.779,0.305-1.139,0.111c-1.603-1.331-1.89-1.945-2.764-3.212c-2.647,2.695-4.521,3.504-7.948,3.504
			c-4.06,0-7.217-2.505-7.217-7.514c0-3.915,2.119-6.576,5.142-7.88c2.615-1.148,6.27-1.357,9.064-1.671v-0.625
			c0-1.149,0.091-2.504-0.585-3.496c-0.587-0.888-1.715-1.253-2.707-1.253c-1.839,0-3.474,0.942-3.875,2.895
			c-0.084,0.435-0.401,0.865-0.838,0.887l-4.673-0.506c-0.395-0.09-0.833-0.406-0.72-1.009c1.073-5.669,6.193-7.381,10.782-7.381
			c2.345,0,5.412,0.625,7.261,2.4c2.344,2.192,2.12,5.115,2.12,8.299v7.51c0,2.261,0.938,3.251,1.818,4.468
			c0.308,0.439,0.378,0.961-0.015,1.282c-0.985,0.825-2.736,2.345-3.697,3.201L36.813,48.679z"/>
	</g>
</g>
</svg>
