<?xml version="1.0" encoding="utf-8"?>
<!-- Generator: Adobe Illustrator 16.0.4, SVG Export Plug-In . SVG Version: 6.00 Build 0)  -->
<!DOCTYPE svg PUBLIC "-//W3C//DTD SVG 1.1//EN" "http://www.w3.org/Graphics/SVG/1.1/DTD/svg11.dtd">
<svg version="1.1" id="Vrstva_3" xmlns="http://www.w3.org/2000/svg" xmlns:xlink="http://www.w3.org/1999/xlink" x="0px" y="0px"
	 width="190px" height="85px" viewBox="0 0 190 85" enable-background="new 0 0 190 85" xml:space="preserve">
<g>
	<path fill-rule="evenodd" clip-rule="evenodd" fill="#333333" d="M115.719,31.926c0.562,0.103,1.127,0.187,1.684,0.312
		c1.207,0.271,2.307,0.761,3.162,1.69c1.795,1.949,1.587,5.273-0.435,7.033c-0.19,0.166-0.387,0.325-0.616,0.516
		c0.161,0.088,0.279,0.16,0.402,0.221c2.134,1.057,3.265,3.321,2.96,5.688c-0.37,2.875-2.521,4.864-5.632,5.049
		c-2.966,0.176-5.946,0.099-8.921,0.113c-0.748,0.003-1.225-0.51-1.225-1.249c-0.003-6.032,0.003-12.063-0.007-18.096
		c-0.002-0.64,0.374-0.978,0.847-1.276C110.532,31.926,113.125,31.926,115.719,31.926z M110.336,34.586c0,5.151,0,10.21,0,15.364
		c2.196-0.052,4.354-0.035,6.502-0.181c1.049-0.071,2.032-0.541,2.503-1.609c0.4-0.908,0.439-1.865,0.099-2.807
		c-0.494-1.365-1.587-1.966-2.943-2.103c-0.951-0.097-1.915-0.062-2.874-0.087c-0.653-0.018-1.12-0.378-1.255-0.97
		c-0.227-0.986,0.339-1.685,1.357-1.727c0.859-0.036,1.733-0.03,2.57-0.198c1.479-0.296,2.246-1.336,2.255-2.852
		c0.008-1.422-0.593-2.146-2.164-2.545C114.401,34.369,112.381,34.698,110.336,34.586z"/>
	<path fill-rule="evenodd" clip-rule="evenodd" fill="#333333" d="M30.526,31.926c0.48,0.102,0.963,0.193,1.441,0.306
		c2.654,0.624,4.328,2.686,4.622,5.392c0.465,4.272-2.677,7.08-6.283,7.36c-0.7,0.055-1.405,0.075-2.107,0.072
		c-0.856-0.003-1.332-0.509-1.324-1.353c0.008-0.802,0.493-1.247,1.344-1.291c0.795-0.041,1.605-0.045,2.377-0.211
		c1.659-0.355,2.725-1.731,2.722-3.426c0-0.571-0.04-1.155-0.165-1.709c-0.279-1.233-1.062-2.031-2.308-2.292
		c-1.881-0.395-3.785-0.121-5.744-0.223c0,0.277,0,0.479,0,0.681c0,5.201,0.001,10.401-0.002,15.6c0,0.255,0.015,0.526-0.066,0.76
		c-0.09,0.258-0.234,0.539-0.44,0.707c-0.69,0.563-2.148,0.265-2.61-0.496c-0.022-0.037-0.067-0.061-0.101-0.092
		c0-6.307,0-12.614,0-18.921c0.288-0.288,0.576-0.576,0.865-0.864C25.339,31.926,27.932,31.926,30.526,31.926z"/>
	<path fill-rule="evenodd" clip-rule="evenodd" fill="#333333" d="M158.557,31.926c0.662,0.36,0.861,0.917,0.854,1.662
		c-0.03,3.089-0.013,6.178-0.013,9.268c0,0.19,0,0.379,0,0.594c0.675,0.125,1.176-0.08,1.598-0.568
		c1.257-1.452,2.546-2.876,3.782-4.346c0.905-1.078,2.021-0.505,2.607,0.304c0.299,0.413,0.187,0.911-0.244,1.394
		c-1.204,1.349-2.415,2.691-3.623,4.037c-0.105,0.118-0.209,0.24-0.358,0.412c0.44,0.464,0.874,0.924,1.312,1.381
		c1.306,1.363,2.619,2.72,3.919,4.088c0.571,0.603,0.562,1.23,0.006,1.771c-0.799,0.777-1.51,0.868-2.125,0.235
		c-1.652-1.696-3.296-3.401-4.936-5.11c-0.517-0.54-1.072-0.952-1.938-0.775c0,0.226,0,0.445,0,0.664
		c0,1.426,0.004,2.85-0.001,4.274c-0.003,0.857-0.477,1.327-1.34,1.343c-0.144,0.002-0.287,0.004-0.432,0
		c-0.808-0.029-1.262-0.496-1.263-1.309c-0.002-4.386-0.001-8.771-0.001-13.158c0-1.521,0.032-3.042-0.014-4.562
		c-0.022-0.741,0.2-1.269,0.863-1.599C157.659,31.926,158.107,31.926,158.557,31.926z"/>
	<path fill-rule="evenodd" clip-rule="evenodd" fill="#333333" d="M69.714,31.926c0.678,0.376,0.861,0.959,0.854,1.715
		c-0.031,3.073-0.014,6.146-0.014,9.219c0,0.189,0,0.379,0,0.592c0.682,0.129,1.179-0.094,1.599-0.578
		c1.247-1.438,2.526-2.849,3.747-4.311c0.907-1.087,1.974-0.574,2.615,0.239c0.314,0.397,0.226,0.917-0.167,1.358
		c-1.234,1.386-2.476,2.766-3.713,4.149c-0.097,0.106-0.188,0.216-0.323,0.371c0.526,0.556,1.047,1.111,1.574,1.661
		c1.206,1.259,2.417,2.515,3.625,3.772c0.577,0.602,0.602,1.242,0.069,1.773c-0.819,0.818-1.514,0.922-2.155,0.268
		c-1.703-1.736-3.39-3.488-5.078-5.239c-0.47-0.488-1.003-0.786-1.768-0.657c-0.008,0.156-0.023,0.325-0.023,0.493
		c-0.002,1.456-0.007,2.913,0.001,4.37c0.003,0.591-0.15,1.125-0.748,1.314c-0.661,0.209-1.385,0.301-1.937-0.254
		c-0.208-0.209-0.339-0.592-0.34-0.896c-0.02-6.018-0.008-12.036-0.023-18.054c-0.002-0.665,0.348-1.019,0.859-1.307
		C68.817,31.926,69.266,31.926,69.714,31.926z"/>
	<path fill-rule="evenodd" clip-rule="evenodd" fill="#333333" d="M22.746,31.926c-0.289,0.288-0.577,0.576-0.865,0.864
		c0-0.288,0-0.576,0-0.864C22.169,31.926,22.458,31.926,22.746,31.926z"/>
	<path fill-rule="evenodd" clip-rule="evenodd" fill="#333333" d="M83.841,46.318c-0.152,2.096,1.518,3.919,3.637,4.069
		c1.486,0.104,2.93-0.103,4.352-0.527c0.948-0.282,1.624,0.138,1.809,1.085c0.109,0.564-0.133,1.097-0.673,1.283
		c-2.645,0.912-5.341,1.17-8.05,0.354c-2.111-0.635-3.42-2.109-3.96-4.245c-0.567-2.242-0.568-4.479,0.329-6.635
		c1.084-2.604,3.119-3.959,5.913-4.07c0.99-0.039,2.031,0.056,2.979,0.33c2.303,0.665,3.379,2.446,3.801,4.676
		c0.149,0.795,0.178,1.619,0.205,2.431c0.026,0.792-0.456,1.247-1.244,1.248c-2.833,0.003-5.665,0.001-8.497,0.001
		C84.252,46.318,84.062,46.318,83.841,46.318z M83.855,43.752c2.412,0,4.786,0,7.158,0c0.075-2.024-0.99-3.367-2.745-3.542
		C85.827,39.966,84.106,41.234,83.855,43.752z"/>
	<path fill-rule="evenodd" clip-rule="evenodd" fill="#333333" d="M154.829,45.37c-0.176,1.034-0.27,2.093-0.546,3.101
		c-0.68,2.482-2.762,4.178-5.322,4.475c-1.232,0.143-2.463,0.154-3.673-0.123c-2.344-0.538-3.924-1.934-4.604-4.27
		c-0.609-2.091-0.643-4.193,0.006-6.283c0.853-2.748,3.168-4.521,6.05-4.653c1.221-0.056,2.434-0.013,3.598,0.412
		c2.573,0.939,3.828,2.911,4.253,5.507c0.098,0.597,0.112,1.207,0.164,1.812C154.78,45.355,154.805,45.362,154.829,45.37z
		 M151.683,45.369c-0.041-0.006-0.081-0.011-0.122-0.016c0-0.352,0.019-0.705-0.003-1.055c-0.143-2.332-1.364-3.808-3.491-4.076
		c-2.115-0.266-3.857,0.628-4.457,2.856c-0.371,1.381-0.389,2.783-0.068,4.175c0.454,1.967,1.518,2.961,3.512,3.169
		c2.001,0.21,3.644-0.641,4.221-2.708C151.485,46.953,151.551,46.152,151.683,45.369z"/>
	<path fill-rule="evenodd" clip-rule="evenodd" fill="#333333" d="M124.306,45.348c0.051-1.465,0.27-2.881,0.945-4.187
		c1.183-2.285,3.157-3.355,5.655-3.541c1.089-0.082,2.178-0.02,3.231,0.302c2.112,0.646,3.523,2.036,4.209,4.122
		c0.726,2.208,0.715,4.45-0.01,6.649c-0.821,2.496-2.656,3.838-5.204,4.237c-1.273,0.2-2.556,0.173-3.812-0.131
		c-2.711-0.653-4.227-2.44-4.735-5.124C124.439,46.909,124.396,46.124,124.306,45.348z M135.777,45.611
		c-0.069-0.78-0.104-1.307-0.168-1.828c-0.033-0.268-0.109-0.531-0.185-0.792c-0.513-1.784-1.824-2.778-3.71-2.82
		c-1.952-0.043-3.347,0.896-3.914,2.675c-0.436,1.367-0.455,2.763-0.199,4.169c0.37,2.039,1.514,3.188,3.564,3.406
		c1.948,0.207,3.574-0.577,4.203-2.611C135.611,47.027,135.675,46.189,135.777,45.611z"/>
	<path fill-rule="evenodd" clip-rule="evenodd" fill="#333333" d="M43.964,37.611c1.851-0.012,3.55,0.425,4.95,1.709
		c1.289,1.182,1.875,2.717,2.122,4.4c0.242,1.654,0.138,3.295-0.38,4.884c-0.825,2.537-2.646,3.924-5.238,4.326
		c-1.321,0.204-2.647,0.167-3.951-0.169c-2.185-0.564-3.665-1.904-4.329-4.07c-0.668-2.178-0.711-4.379,0.004-6.556
		c0.89-2.709,3.243-4.435,6.101-4.524C43.483,37.604,43.724,37.611,43.964,37.611z M48.037,45.061
		c-0.045-0.354-0.089-1.01-0.216-1.648c-0.401-2.015-1.764-3.17-3.766-3.239c-2.096-0.071-3.51,0.967-4.058,2.991
		c-0.331,1.224-0.358,2.468-0.138,3.707c0.394,2.221,1.512,3.338,3.64,3.558c1.665,0.172,3.172-0.433,3.935-2.034
		C47.892,47.434,48.002,46.406,48.037,45.061z"/>
	<path fill-rule="evenodd" clip-rule="evenodd" fill="#333333" d="M60.078,53.035c-1.158,0.018-2.3-0.106-3.395-0.5
		c-1.869-0.671-3.145-1.945-3.702-3.857c-0.67-2.301-0.706-4.613,0.237-6.854c1.035-2.46,2.983-3.756,5.583-4.114
		c1.918-0.264,3.791-0.004,5.628,0.576c0.828,0.262,1.154,0.792,0.943,1.547c-0.229,0.815-0.883,1.217-1.694,0.954
		c-1.121-0.363-2.249-0.556-3.434-0.538c-2.433,0.036-4.106,1.459-4.468,3.881c-0.189,1.266-0.162,2.52,0.269,3.738
		c0.558,1.577,1.729,2.368,3.354,2.512c1.418,0.125,2.803-0.104,4.16-0.515c0.896-0.271,1.55,0.057,1.807,0.9
		c0.212,0.697-0.082,1.271-0.776,1.519C63.131,52.804,61.627,53.058,60.078,53.035z"/>
	<path fill-rule="evenodd" clip-rule="evenodd" fill="#333333" d="M99.393,38.096c1.179,0,2.28-0.002,3.382,0
		c0.949,0.002,1.475,0.639,1.304,1.572c-0.105,0.583-0.583,0.938-1.316,0.948c-0.896,0.012-1.793,0.003-2.689,0.004
		c-0.679,0-0.68,0-0.68,0.672c0,2.032-0.005,4.065,0.004,6.099c0.002,0.415,0.029,0.833,0.089,1.244
		c0.16,1.113,0.751,1.662,1.95,1.718c0.616,0.028,1.243-0.063,1.858-0.145c0.801-0.104,1.343,0.22,1.52,0.961
		c0.158,0.662-0.186,1.302-0.851,1.444c-1.496,0.321-3.008,0.445-4.518,0.1c-1.822-0.418-2.987-1.871-3.008-3.832
		c-0.036-3.361-0.021-6.724-0.026-10.085c-0.002-1.2-0.007-2.401,0.003-3.602c0.007-0.806,0.444-1.234,1.249-1.252
		c0.208-0.004,0.416-0.007,0.624,0.004c0.667,0.038,1.092,0.471,1.102,1.145c0.012,0.801,0.004,1.601,0.004,2.401
		C99.393,37.666,99.393,37.839,99.393,38.096z"/>
</g>
</svg>
