<?xml version="1.0" encoding="utf-8"?>
<!-- Generator: Adobe Illustrator 16.0.4, SVG Export Plug-In . SVG Version: 6.00 Build 0)  -->
<!DOCTYPE svg PUBLIC "-//W3C//DTD SVG 1.1//EN" "http://www.w3.org/Graphics/SVG/1.1/DTD/svg11.dtd">
<svg version="1.1" xmlns="http://www.w3.org/2000/svg" xmlns:xlink="http://www.w3.org/1999/xlink" x="0px" y="0px" width="190px"
	 height="85px" viewBox="0 0 190 85" enable-background="new 0 0 190 85" xml:space="preserve">
<g id="Vrstva_2" display="none">
</g>
<g id="Vrstva_1">
	<path fill-rule="evenodd" clip-rule="evenodd" fill="#333333" d="M170.501,39.403l5.935-6.227l0,0
		c0.344-0.457,0.515-0.776,0.515-1.051c0-0.457-0.401-0.64-1.658-0.64l0,0h-1.498v-3.931H190v3.931h-2.13l0,0
		c-2.459,0-2.917,0.365-6.346,4.616l0,0l-9.388,9.96v6.081l0,0c0,1.555,0.8,2.102,3.087,2.102l0,0h3.544v3.794h-22.695v-3.794h3.544
		l0,0c2.285,0,3.087-0.547,3.087-2.102l0,0v-6.081l-11.056-12.017l0,0c-1.829-2.102-1.575-2.559-6.663-2.559l0,0v-3.931h20.528
		v3.931h-1.463l0,0c-1.486,0-2.115,0.274-2.115,0.823c0,0.457,0.457,0.823,0.743,1.187l0,0l5.595,5.991l0,0
		C168.933,40.166,169.743,40.254,170.501,39.403L170.501,39.403L170.501,39.403L170.501,39.403z"/>
	<path fill-rule="evenodd" clip-rule="evenodd" fill="#333333" d="M32.783,27.553h4.951v10.969h-4.573l0,0
		c-0.405-2.193-1.8-3.046-3.075-4.196c-2.297-2.075-7.271-3.802-11.456-3.802c-5.399,0-9.958,1.646-9.958,4.067
		c0,6.719,30.883,1.372,30.883,14.078c0,6.627-6.615,10.328-18.495,10.328c-4.112,0-10.336-1.254-14.008-3.172
		c-1.151-0.654-1.64,0.619-1.855,2.213l0,0H0.121V46.702h4.591l0,0c1.013,2.881,2.409,3.474,3.691,4.616
		c2.227,2.012,7.527,3.476,12.388,3.427c7.328-0.07,9.849-1.644,9.849-3.931c0-2.284-2.493-2.833-10.523-4.067l0,0l-6.819-1.096l0,0
		C5.603,44.51,0,42.819,0,36.785c0-6.261,7.087-10.191,18.293-10.191c4.722,0,8.674,0.621,12.465,2.728
		C31.811,29.99,32.795,30.071,32.783,27.553L32.783,27.553L32.783,27.553L32.783,27.553z"/>
	<path fill-rule="evenodd" clip-rule="evenodd" fill="#333333" d="M129.41,45.915l0.099-12.188l0,0c0-1.6-0.846-2.147-3.267-2.147
		l0,0H123.4v-3.794h18.085v3.794h-2.357l0,0c-2.421,0-3.269,0.548-3.269,2.147l0,0v24.542l-7.079-0.053L105.858,36.88v15.491l0,0
		c0,1.555,0.848,2.15,3.266,2.15l0,0h3.146v3.747H93.489v-3.747h3.113l0,0c2.417,0,3.266-0.596,3.266-2.15l0,0V33.727l0,0
		c0-1.6-0.849-2.147-3.266-2.147l0,0h-3.113v-3.794h16.24L129.41,45.915L129.41,45.915L129.41,45.915z"/>
	<path fill-rule="evenodd" clip-rule="evenodd" fill="#333333" d="M68.832,26.363c-14.414,0-23.436,6.262-23.436,16.315
		c0,9.873,8.897,16.086,22.996,16.086c14.976,0,23.687-6.122,23.687-16.589C92.079,32.762,82.679,26.363,68.832,26.363
		L68.832,26.363L68.832,26.363L68.832,26.363z M68.503,54.79c-7.977,0-12.564-4.524-12.564-12.341
		c0-7.63,4.786-12.156,12.963-12.156c7.844,0,12.432,4.617,12.432,12.477C81.334,50.445,76.681,54.79,68.503,54.79L68.503,54.79
		L68.503,54.79L68.503,54.79z"/>
</g>
</svg>
