<?xml version="1.0" encoding="utf-8"?>
<!-- Generator: Adobe Illustrator 16.0.4, SVG Export Plug-In . SVG Version: 6.00 Build 0)  -->
<!DOCTYPE svg PUBLIC "-//W3C//DTD SVG 1.1//EN" "http://www.w3.org/Graphics/SVG/1.1/DTD/svg11.dtd">
<svg version="1.1" xmlns="http://www.w3.org/2000/svg" xmlns:xlink="http://www.w3.org/1999/xlink" x="0px" y="0px" width="190px"
	 height="85px" viewBox="0 0 190 85" enable-background="new 0 0 190 85" xml:space="preserve">
<g id="Vrstva_2" display="none">
</g>
<g id="Vrstva_3">
	<path fill-rule="evenodd" clip-rule="evenodd" fill="#333333" d="M166.402,52.501c0,1.036-0.438,1.56-1.231,1.56h-0.832
		c-0.797,0-1.233-0.523-1.233-1.56V38.186c0-1.044,0.437-1.562,1.233-1.562h0.832c0.794,0,1.231,0.518,1.231,1.562V52.501z
		 M76.407,37.106c0,1.007-0.396,1.525-1.232,1.525h-1.508c-2.463,0-3.693,0.782-3.693,2.344v11.525c0,1.036-0.398,1.56-1.192,1.56
		h-0.915c-0.793,0-1.188-0.523-1.188-1.602l0.037-11.483c0-2.12,0.834-3.681,2.463-4.687c1.271-0.777,2.82-1.19,4.688-1.19h1.309
		c0.836,0,1.232,0.524,1.232,1.562V37.106z M97.098,44.916c0,1.148-0.318,1.707-0.912,1.707H79.823c0,2.639,1.428,3.939,4.247,3.939
		h2.464c0.833,0,1.232,0.523,1.232,1.562v0.376c0,1.036-0.399,1.56-1.232,1.56h-2.105c-2.104,0-3.812-0.371-5.162-1.078
		c-1.906-0.97-2.821-2.644-2.821-4.909v-6.985c0-2.16,0.915-3.793,2.821-4.834c1.35-0.784,3.058-1.155,5.043-1.155h6.156
		c1.63,0,3.058,0.371,4.25,1.078c1.588,0.93,2.382,2.308,2.382,4.164V44.916z M93.882,43.02v-2.345c0-0.705-0.635-1.261-1.906-1.637
		c-0.875-0.294-1.709-0.406-2.542-0.406h-4.766c-3.297,0-4.964,0.742-4.964,2.232v2.155H93.882z M105.675,38.632
		c-1.271,0-1.984,0-2.223,0.036c-1.112,0.188-1.668,0.636-1.668,1.302v1.006c0,0.666,0.359,1.149,1.113,1.373
		c0.595,0.223,1.59,0.3,3.018,0.3h5.441c4.052,0,6.076,1.707,6.076,5.129v0.854c0,3.604-2.185,5.43-6.512,5.43H99.799
		c-0.795,0-1.229-0.523-1.229-1.56v-0.376c0-1.039,0.434-1.562,1.229-1.562h11.162c2.024,0,3.058-0.63,3.058-1.932v-0.707
		c0-1.153-0.915-1.707-2.822-1.707h-5.319c-2.066,0-3.655-0.259-4.766-0.782c-1.71-0.819-2.583-2.268-2.583-4.424V39.97
		c0-3.234,2.343-4.871,7.069-4.871h14.655V31.53c0-1.002,0.397-1.525,1.23-1.525h0.834c0.834,0,1.232,0.523,1.232,1.525v3.757h5.203
		c0.835,0,1.229,0.483,1.229,1.525v0.406c0,1.042-0.395,1.378-1.229,1.378h-5.203v13.904c0,1.036-0.398,1.56-1.232,1.56h-0.834
		c-0.833,0-1.23-0.523-1.23-1.56V38.597L105.675,38.632z M135.9,52.501c0,1.036-0.397,1.56-1.229,1.56h-0.835
		c-0.793,0-1.19-0.523-1.19-1.56V38.186c0-1.044,0.397-1.562,1.19-1.562h0.835c0.832,0,1.229,0.518,1.229,1.562V52.501z
		 M159.771,53.426c0,2.195-1.072,3.792-3.258,4.799c-1.508,0.706-3.295,1.077-5.321,1.077h-1.389c-0.835,0-1.234-0.523-1.234-1.561
		V57.33c0-1.044,0.399-1.525,1.234-1.525h2.381c0.558,0,1.39-0.224,2.423-0.595c1.191-0.483,1.79-0.89,1.79-1.301h-9.017
		c-2.106,0-3.854-0.332-5.245-1.037c-1.984-0.967-3.015-2.568-3.015-4.836v-7.025c0-1.973,0.832-3.491,2.421-4.569
		c1.391-0.895,3.017-1.343,4.964-1.343h4.844c2.068,0,3.853,0.371,5.324,1.118c2.062,1.002,3.098,2.639,3.098,4.871V53.426z
		 M156.475,50.415v-9.18c0-0.932-0.636-1.672-1.868-2.155c-0.835-0.301-1.747-0.483-2.741-0.483h-5.202
		c-1.19,0-2.063,0.112-2.621,0.259c-1.071,0.336-1.626,1.002-1.626,2.079v7.066c0,1.597,1.626,2.414,4.883,2.414H156.475z
		 M189.992,48.184c0,2.196-0.872,3.793-2.619,4.799c-1.194,0.707-2.739,1.078-4.646,1.078h-5.479c-3.537,0-5.839-1.118-6.99-3.345
		c-0.438-0.783-0.637-1.637-0.637-2.532V41.2c0-1.525,0.554-2.868,1.709-4.017c1.388-1.378,3.375-2.085,5.918-2.085h5.479
		c4.845,0,7.266,2.043,7.266,6.06V48.184z M186.658,48.184v-7.284c0-1.525-1.35-2.268-4.051-2.268h-5.324
		c-0.99,0-1.864,0.147-2.619,0.448c-1.193,0.441-1.747,1.148-1.747,2.12v6.983c0,0.931,0.595,1.562,1.787,1.973
		c0.754,0.259,1.628,0.406,2.579,0.406h5.362c0.836,0,1.63-0.147,2.423-0.441C186.143,49.673,186.658,49.038,186.658,48.184"/>
	<path fill-rule="evenodd" clip-rule="evenodd" fill="#333333" d="M57.661,31.348c1.391,0,3.058,0.112,3.734,0.441
		c0.833,0.413,1.271,1.154,1.349,2.197v4.239c0,1.188-0.436,1.968-1.349,2.414c-0.677,0.336-2.344,0.448-3.734,0.448H45.427v-9.74
		H57.661z M66.199,34.062c0-2.378-0.953-3.756-2.86-4.834c-1.39-0.783-3.733-1.114-5.876-1.114H43.204
		c-0.834,0-1.23,0.519-1.23,1.562v22.826c0,1.036,0.396,1.56,1.23,1.56h0.993c0.834,0,1.229-0.523,1.229-1.56V44.32h12.036
		c2.143,0,4.486-0.336,5.876-1.118c1.907-1.077,2.86-2.45,2.86-4.83V34.062z"/>
	<path fill-rule="evenodd" clip-rule="evenodd" fill="#333333" d="M17.786,25.659L17.786,25.659c3.932,0,7.506,1.484,10.128,3.904
		c2.581,2.449,4.169,5.794,4.169,9.517c0,3.68-1.588,7.024-4.169,9.475c-2.622,2.421-6.196,3.904-10.128,3.904
		c-3.972,0-7.547-1.483-10.168-3.904c-2.58-2.45-4.169-5.795-4.169-9.475c0-3.723,1.589-7.067,4.169-9.517
		C10.239,27.144,13.814,25.659,17.786,25.659 M17.786,57.741c6.593-2.715,11.16-6.1,14.259-11.083
		c3.096-4.977,4.011-10.369,3.256-17.024c-5.839-3.975-11.318-5.983-17.515-5.983c-6.235,0-11.716,2.009-17.555,5.983
		c-0.755,6.655,0.157,12.048,3.257,17.024C6.587,51.642,11.153,55.026,17.786,57.741"/>
	<path fill="#333333" d="M17.786,27.219L17.786,27.219c-3.496,0-6.674,1.338-8.976,3.458c-2.265,2.155-3.693,5.129-3.693,8.403
		c0,3.232,1.429,6.207,3.693,8.362c2.302,2.119,5.479,3.456,8.976,3.456c3.456,0,6.634-1.337,8.937-3.456
		c2.265-2.155,3.692-5.13,3.692-8.362c0-3.274-1.428-6.248-3.692-8.403C24.42,28.557,21.242,27.219,17.786,27.219 M17.786,26.437
		L17.786,26.437c3.692,0,7.07,1.413,9.493,3.722c2.46,2.267,3.97,5.424,3.97,8.922c0,3.456-1.51,6.613-3.97,8.881
		c-2.423,2.308-5.801,3.721-9.493,3.721c-3.734,0-7.11-1.413-9.532-3.721c-2.464-2.268-3.971-5.425-3.971-8.881
		c0-3.498,1.507-6.655,3.971-8.922C10.676,27.85,14.052,26.437,17.786,26.437"/>
	<path fill-rule="evenodd" clip-rule="evenodd" fill="#333333" d="M25.014,31.195c-0.912-0.854-1.786-1.037-2.859-0.777
		c-0.834,0.182-1.787,0.853-2.541,1.595l-3.099,2.863l1.271,1.153l3.139-2.938c0.516-0.483,1.11-1.002,1.508-1.114
		c0.437-0.111,0.874,0,1.311,0.335l1.629,1.526c0.438,0.442,0.596,0.853,0.438,1.336c-0.119,0.337-0.676,0.93-1.153,1.413
		l-4.408,4.087l-3.733-3.491l0.915-0.819l-1.271-1.153l-1.67,1.602c-0.317,0.259-0.235,0.554,0.16,0.925l6.354,5.988h2.501
		l-1.984-1.86l4.29-4.052c0.794-0.707,1.508-1.637,1.705-2.379c0.239-1.042,0.082-1.819-0.833-2.674L25.014,31.195z"/>
	<path fill-rule="evenodd" clip-rule="evenodd" fill="#333333" d="M10.519,31.195c0.913-0.854,1.787-1.037,2.897-0.777
		c0.796,0.182,1.749,0.853,2.542,1.595l5.083,4.8c0.32,0.259,0.24,0.554-0.116,0.925l-1.551,1.454l-1.271-1.153l0.914-0.854
		c-1.469-1.338-2.94-2.716-4.409-4.092c-0.476-0.483-1.111-1.002-1.51-1.114c-0.435-0.111-0.872,0-1.31,0.335l-1.629,1.526
		c-0.438,0.442-0.595,0.853-0.438,1.336c0.119,0.337,0.677,0.93,1.151,1.413l4.41,4.087l2.502-2.303l1.231,1.149l-4.488,4.204
		h-2.501l2.023-1.86l-4.329-4.052c-0.755-0.707-1.507-1.637-1.708-2.379c-0.236-1.042-0.079-1.819,0.836-2.674L10.519,31.195z"/>
	<polygon fill-rule="evenodd" clip-rule="evenodd" fill="#333333" points="15.92,30.229 17.786,28.484 19.613,30.229 17.786,31.978 
			"/>
	<rect x="9.842" y="44.174" fill-rule="evenodd" clip-rule="evenodd" fill="#333333" width="15.849" height="2.414"/>
</g>
</svg>
