<?xml version="1.0" encoding="utf-8"?>
<!-- Generator: Adobe Illustrator 15.1.0, SVG Export Plug-In . SVG Version: 6.00 Build 0)  -->
<!DOCTYPE svg PUBLIC "-//W3C//DTD SVG 1.1//EN" "http://www.w3.org/Graphics/SVG/1.1/DTD/svg11.dtd">
<svg version="1.1" id="Layer_1" xmlns="http://www.w3.org/2000/svg" xmlns:xlink="http://www.w3.org/1999/xlink" x="0px" y="0px"
	 width="429.89px" height="227.214px" viewBox="0 0 429.89 227.214" enable-background="new 0 0 429.89 227.214"
	 xml:space="preserve">
<g>
	<defs>
		<rect id="SVGID_1_" width="429.89" height="227.214"/>
	</defs>
	<clipPath id="SVGID_2_">
		<use xlink:href="#SVGID_1_"  overflow="visible"/>
	</clipPath>
	<g clip-path="url(#SVGID_2_)">
		<defs>
			<rect id="SVGID_3_" width="429.89" height="227.214"/>
		</defs>
		<clipPath id="SVGID_4_">
			<use xlink:href="#SVGID_3_"  overflow="visible"/>
		</clipPath>
		<path clip-path="url(#SVGID_4_)" fill="#BCCF00" d="M362.408,71.889l-12.794-0.004c-1.395-0.001-2.526-1.132-2.526-2.528
			l0.006-12.952c0-1.396,1.132-2.526,2.526-2.526l12.794,0.004c1.396,0.001,2.526,1.133,2.526,2.528l-0.004,12.952
			C364.936,70.759,363.804,71.889,362.408,71.889"/>
		<path clip-path="url(#SVGID_4_)" fill="#BCCF00" d="M345.36,53.88l-8.689-0.003c-0.948,0-1.716-0.769-1.716-1.717l0.003-8.797
			c0-0.947,0.769-1.715,1.717-1.715l8.689,0.003c0.947,0,1.716,0.769,1.716,1.717l-0.003,8.797
			C347.076,53.112,346.308,53.88,345.36,53.88"/>
	</g>
	<g clip-path="url(#SVGID_2_)">
		<defs>
			<path id="SVGID_5_" d="M244.733,97.817c-3.755,0-5.228,1.159-6.059,4.761l-10.434,43.371c-1.302,5.33-3.131,6.305-6.264,6.305
				c-3.834,0-5.368-0.915-6.897-6.325l-11.817-43.371c-0.977-3.633-2.421-4.74-6.177-4.74h-1.007c-1.516,0-3.025,0.139-3.8,1.151
				c-0.776,1.012-0.513,2.523-0.114,4.008l11.942,43.746c2.241,8.372,4.904,15.302,14.854,15.302c1.858,0,3.575-0.258,5.004-0.739
				c-3.018,9.49-6.088,13.678-15.142,14.606c-1.837,0.154-3.03,0.416-3.696,1.309c-0.69,0.925-0.533,2.249-0.286,3.434l0.249,1.121
				c0.54,2.594,1.461,4.202,4.373,4.202c0.305,0,0.635-0.017,0.988-0.047c13.518-0.885,20.761-8.162,25-25.119l14.461-57.845
				c0.343-1.484,0.55-2.995-0.243-3.992c-0.795-0.999-2.298-1.136-3.804-1.136H244.733z M147.475,142.412
				c0-7.296,4.358-10.139,15.543-10.139h13.909v8.756c0,7.137-2.646,11.269-16.172,11.269
				C151.818,152.298,147.475,149.063,147.475,142.412 M147.007,97.251c-3.103,0.675-4.401,1.527-4.401,5.056v1.007
				c0,1.382,0.205,2.34,0.644,3.014c0.511,0.785,1.335,1.183,2.448,1.183c0.544,0,1.174-0.091,1.925-0.279
				c1.772-0.443,7.438-1.359,13.634-1.359c11.131,0,15.67,3.083,15.67,10.641v6.743h-14.035c-18.042,0-26.446,6.087-26.446,19.155
				c0,12.676,8.678,19.657,24.434,19.657c18.726,0,27.076-6.373,27.076-20.663v-24.893c0-13.82-8.897-20.538-27.201-20.538
				C153.381,95.976,148.76,96.901,147.007,97.251 M321.799,77.677c-7.777,0-10.671,1.284-10.671,8.368v16.58
				c-0.001,0.035-0.005,0.069-0.005,0.105v3.634c-0.002,0.126-0.01,0.244-0.01,0.373V129.9c0,2.83-0.545,5.083-1.67,6.833
				c-2.121,3.268-6.319,4.754-13.038,4.763c-6.715-0.009-10.913-1.493-13.035-4.758c-1.126-1.751-1.673-4.005-1.673-6.838v-23.164
				c0-0.129-0.008-0.247-0.01-0.373v-3.634c0-0.036-0.005-0.07-0.006-0.105v-16.58c0-7.084-2.892-8.368-10.67-8.368h-2.449
				c-7.778,0-10.672,1.284-10.672,8.368v16.685v17.553v9.617c0,7.057,1.593,13.029,4.666,17.845c5.938,9.33,17.438,14.3,33.788,14.3
				c0.021,0,0.04-0.001,0.061-0.001s0.04,0.001,0.06,0.001c16.352,0,27.852-4.97,33.788-14.3c3.075-4.815,4.666-10.788,4.666-17.845
				v-9.617V102.73V86.045c0-7.084-2.893-8.368-10.672-8.368H321.799z M87.132,93.549c0-3.725,1.385-5.11,5.109-5.11h16.469
				c10.561,0,16.675,2.605,16.675,15.921c0,10.407-2.657,16.047-16.675,16.047H87.132V93.549z M90.104,77.662
				c-9.944,0-14.378,4.434-14.378,14.377v63.866c0,3.841,1.233,5.073,5.074,5.073h1.257c3.842,0,5.075-1.232,5.075-5.073v-24.848
				h21.578c19.158,0,28.081-8.482,28.081-26.698c0-18.215-8.923-26.698-28.081-26.698H90.104z"/>
		</defs>
		<clipPath id="SVGID_6_">
			<use xlink:href="#SVGID_5_"  overflow="visible"/>
		</clipPath>
		
			<linearGradient id="SVGID_7_" gradientUnits="userSpaceOnUse" x1="0" y1="227.2139" x2="1" y2="227.2139" gradientTransform="matrix(0 110.1712 110.1712 0 -24827.082 100.5073)">
			<stop  offset="0" style="stop-color:#BCCF00"/>
			<stop  offset="1" style="stop-color:#438F29"/>
		</linearGradient>
		<rect x="75.726" y="77.662" clip-path="url(#SVGID_6_)" fill="url(#SVGID_7_)" width="259.193" height="108.294"/>
	</g>
	<g clip-path="url(#SVGID_2_)">
		<defs>
			<rect id="SVGID_8_" width="429.89" height="227.214"/>
		</defs>
		<clipPath id="SVGID_9_">
			<use xlink:href="#SVGID_8_"  overflow="visible"/>
		</clipPath>
		<g clip-path="url(#SVGID_9_)">
			<g>
				<defs>
					<rect id="SVGID_10_" x="323.048" y="71.873" width="24.035" height="24.248"/>
				</defs>
				<clipPath id="SVGID_11_">
					<use xlink:href="#SVGID_10_"  overflow="visible"/>
				</clipPath>
				<path clip-path="url(#SVGID_11_)" fill="#BCCF00" d="M343.674,96.121l-17.225-0.006c-1.88-0.001-3.402-1.524-3.401-3.403
					l0.006-17.438c0.001-1.879,1.524-3.402,3.403-3.401l17.225,0.006c1.879,0,3.402,1.524,3.401,3.403l-0.006,17.438
					C347.076,94.599,345.553,96.122,343.674,96.121"/>
			</g>
		</g>
	</g>
</g>
</svg>
