<svg xmlns="http://www.w3.org/2000/svg" xmlns:xlink="http://www.w3.org/1999/xlink" version="1.1" x="0" y="0" width="200" height="86.57" viewBox="0 0 200 86.57">
  <g id="Background">
    <rect x="0" y="0" width="200" height="86.57" fill="#000000" fill-opacity="0"/>
  </g>
  <defs>
    <clipPath id="Clip_1">
      <path d="M0 1.38L197.57 1.38 197.57 86.39 0 86.39z"/>
    </clipPath>
  </defs>
  <g id="Layer_1">
    <path d="M79.9 46.85L70 73.55 68.94 68.12C66.47 61.47 61.14 54.49 54.92 51.66L63.98 85.95 74.69 85.94 90.61 46.85 79.9 46.85" fill="#223D77"/>
    <g clip-path="url(#Clip_1)">
      <path d="M88.39 85.99L94.72 46.81 104.84 46.81 98.5 85.99 88.39 85.99" fill="#223D77"/>
      <path d="M135.2 47.77C133.2 46.98 130.05 46.12 126.13 46.12 116.13 46.12 109.1 51.44 109.04 59.05 108.97 64.69 114.06 67.83 117.89 69.7 121.84 71.62 123.16 72.85 123.15 74.56 123.11 77.19 119.99 78.39 117.09 78.39 113.04 78.39 110.89 77.79 107.57 76.33L106.26 75.71 104.84 84.48C107.21 85.57 111.58 86.52 116.12 86.57 126.74 86.57 133.65 81.31 133.73 73.19 133.77 68.71 131.07 65.33 125.23 62.54 121.7 60.73 119.52 59.52 119.56 57.68 119.56 56.05 121.39 54.31 125.35 54.31 128.67 54.26 131.05 55.02 132.92 55.82L133.82 56.27 135.2 47.77" fill="#223D77"/>
    </g>
    <path d="M148.67 72.09C149.51 69.85 152.7 61.14 152.7 61.14 152.64 61.25 153.53 58.88 154.05 57.41L154.72 60.79C154.72 60.79 156.66 70.14 157.07 72.09 155.5 72.09 150.65 72.09 148.67 72.09zM161.15 46.85L153.33 46.85C150.91 46.85 149.09 47.54 148.02 50.1L133.01 86 143.63 86C143.63 86 145.37 81.17 145.76 80.11 146.92 80.11 157.24 80.13 158.71 80.13 159.02 81.5 159.94 86 159.94 86L169.34 86 161.15 46.85" fill="#223D77"/>
    <path d="M60.81 46.82L44.5 46.82 44.4 47.5C57.09 50.74 65.46 58.71 68.94 68.13L65.4 50.13C64.79 47.65 63.01 46.91 60.81 46.82" fill="#EC9434"/>
    <path d="M13.89 37.36L7.44 37.36 0 3.81 7.13 2.62 12.22 28.87 25.19 2.96 32.04 2.96 13.89 37.36" fill="#223D77"/>
    <path d="M38.39 16.86C36.01 16.86 33.78 18.75 32.73 22.67L42.26 22.67C42.43 18.95 41.27 16.86 38.39 16.86zM47.44 26.39L32.06 26.39C31.64 31.05 33.81 33.09 37.48 33.09 40.56 33.09 43.26 31.95 46.18 30.11L46.15 34.78C43.3 36.56 39.99 37.7 36.12 37.7 29.42 37.7 25 33.88 26.33 25.25 27.53 17.46 32.92 12.74 39.17 12.74 46.37 12.74 48.76 18.15 47.71 24.95 47.64 25.45 47.5 26.05 47.44 26.39" fill="#223D77"/>
    <path d="M57.47 23.46L55.36 37.21 49.4 37.21 53.09 13.24 58.15 13.24 58.15 18.05C60.17 15.28 62.91 12.94 66.66 12.74L66.7 18.65C62.94 18.9 59.56 20.88 57.47 23.46" fill="#223D77"/>
    <path d="M73.95 9.22C71.97 9.22 70.59 7.83 70.9 5.85 71.22 3.81 73.02 2.37 75.01 2.37 76.94 2.37 78.31 3.81 78 5.85 77.69 7.83 75.89 9.22 73.95 9.22zM66.62 37.21L70.31 13.24 76.26 13.24 72.57 37.21 66.62 37.21" fill="#223D77"/>
    <path d="M92.76 6.69C90.72 6.69 89.49 7.58 89.16 9.72L88.62 13.24 93.19 13.24 93.18 18.1 87.87 18.1 84.93 37.21 79.03 37.21 81.97 18.1 78.49 18.1 79.24 13.24 82.71 13.24 83.35 9.12C84.17 3.81 87.85 1.82 92.76 1.82 93.8 1.82 94.58 1.93 95.16 2.02L95.21 6.89C94.63 6.79 93.75 6.69 92.76 6.69" fill="#223D77"/>
    <path d="M100.16 9.22C98.17 9.22 96.8 7.83 97.1 5.85 97.42 3.81 99.22 2.37 101.21 2.37 103.15 2.37 104.51 3.81 104.2 5.85 103.89 7.83 102.09 9.22 100.16 9.22zM92.82 37.21L96.51 13.24 102.47 13.24 98.78 37.21 92.82 37.21" fill="#223D77"/>
    <path d="M116.5 16.86C114.12 16.86 111.89 18.75 110.84 22.67L120.37 22.67C120.54 18.95 119.38 16.86 116.5 16.86zM125.55 26.39L110.17 26.39C109.75 31.05 111.92 33.09 115.59 33.09 118.67 33.09 121.37 31.95 124.29 30.11L124.26 34.78C121.41 36.56 118.1 37.7 114.23 37.7 107.53 37.7 103.11 33.88 104.44 25.25 105.64 17.46 111.03 12.74 117.28 12.74 124.48 12.74 126.87 18.15 125.82 24.95 125.75 25.45 125.61 26.05 125.55 26.39" fill="#223D77"/>
    <path d="M145.18 18.8C143.8 18.1 142.71 17.76 140.68 17.76 137.55 17.76 134.88 20.28 134.07 25.55 133.35 30.21 135 32.39 137.63 32.39 139.82 32.39 141.7 31.1 143.59 29.12L145.18 18.8zM143.19 37.21L143.21 33.88C141.21 35.92 138.6 37.7 135.28 37.7 130.26 37.7 126.82 33.98 128.06 25.89 129.44 16.96 134.96 12.99 140.52 12.99 142.8 12.99 144.58 13.39 145.94 13.88L147.72 2.32 153.82 1.38 148.3 37.21 143.19 37.21" fill="#223D77"/>
    <path d="M169.88 22.66C168.37 22.66 166.86 23.68 165.53 25.03L164.26 33.26C165.15 33.6 165.76 33.75 167.04 33.75 169.9 33.75 171.89 32.02 172.53 27.89 173.07 24.39 171.9 22.66 169.88 22.66zM166.55 37.43C163.73 37.43 161.43 36.99 159.29 36.23L163.21 10.78 167.83 10.07 166.13 21.08C167.48 19.88 169.36 18.68 171.65 18.68 175.49 18.68 178.05 21.53 177.12 27.62 176.09 34.31 171.96 37.43 166.55 37.43" fill="#223D77"/>
    <path d="M187.74 38.19C185.44 42.66 183.16 44.05 179.66 44.05 178.87 44.05 178.43 43.97 178.04 43.86L178.01 40.14C178.59 40.29 179.21 40.4 180.07 40.4 181.39 40.4 182.53 39.8 183.3 38.49L183.9 37.28 180.08 19.39 184.87 18.79 187.09 31.72 193.09 19.05 197.57 19.05 187.74 38.19" fill="#223D77"/>
  </g>
</svg>
